<?xml version="1.0" encoding="UTF-8" standalone="no"?>
<!-- Created with Inkscape (http://www.inkscape.org/) -->

<svg
   width="15.24mm"
   height="128.5mm"
   viewBox="0 0 15.24 128.5"
   version="1.1"
   id="svg1"
   inkscape:version="1.3.2 (091e20e, 2023-11-25, custom)"
   sodipodi:docname="n_EightGateSequencer.svg"
   xmlns:inkscape="http://www.inkscape.org/namespaces/inkscape"
   xmlns:sodipodi="http://sodipodi.sourceforge.net/DTD/sodipodi-0.dtd"
   xmlns:xlink="http://www.w3.org/1999/xlink"
   xmlns="http://www.w3.org/2000/svg"
   xmlns:svg="http://www.w3.org/2000/svg">
  <sodipodi:namedview
     id="namedview1"
     pagecolor="#ffffff"
     bordercolor="#999999"
     borderopacity="1"
     inkscape:showpageshadow="2"
     inkscape:pageopacity="0"
     inkscape:pagecheckerboard="0"
     inkscape:deskcolor="#d1d1d1"
     inkscape:document-units="mm"
     inkscape:zoom="1.0242632"
     inkscape:cx="-33.682749"
     inkscape:cy="341.22089"
     inkscape:window-width="1920"
     inkscape:window-height="1009"
     inkscape:window-x="1854"
     inkscape:window-y="-8"
     inkscape:window-maximized="1"
     inkscape:current-layer="layer1" />
  <defs
     id="defs1">
    <rect
       x="-0.0011496843"
       y="389.3349"
       width="57.601151"
       height="60.151909"
       id="rect3-0" />
    <linearGradient
       inkscape:collect="always"
       xlink:href="#linearGradient3-0"
       id="linearGradient4-6"
       x1="-18.528103"
       y1="130.95781"
       x2="-18.528103"
       y2="2.4578042"
       gradientUnits="userSpaceOnUse"
       gradientTransform="translate(26.147951,-2.4578063)" />
    <linearGradient
       id="linearGradient3-0"
       inkscape:collect="always">
      <stop
         style="stop-color:#0a0a0a;stop-opacity:1;"
         offset="0"
         id="stop3-2" />
      <stop
         style="stop-color:#1f1f1f;stop-opacity:1;"
         offset="1"
         id="stop4-1" />
    </linearGradient>
  </defs>
  <g
     inkscape:label="Layer 1"
     inkscape:groupmode="layer"
     id="layer1">
    <rect
       x="-0.00030382889"
       width="15.240304"
       height="128.5"
       fill="url(#uuid-925fcaa7-b9ea-42b9-97ca-be2178393fa0)"
       id="rect2"
       y="-2e-06"
       style="font-variation-settings:normal;vector-effect:none;fill:url(#linearGradient4-6);fill-opacity:1;stroke-width:0.465357;stroke-linecap:butt;stroke-linejoin:miter;stroke-miterlimit:4;stroke-dasharray:none;stroke-dashoffset:0;stroke-opacity:1;-inkscape-stroke:none;stop-color:#000000;opacity:1;stop-opacity:1"
       inkscape:label="Base" />
    <path
       d="m 5.9617962,7.8075808 q -0.1968519,0.1039971 -0.4902723,0.1039971 -0.3788468,0 -0.6066501,-0.2438981 -0.2278032,-0.2438981 -0.2278032,-0.6400777 0,-0.4258931 0.2562787,-0.6883621 0.2562785,-0.2624691 0.6499821,-0.2624691 0.2525645,0 0.4184648,0.073046 V 6.3714295 Q 5.7711347,6.2649562 5.5408553,6.2649562 q -0.3058012,0 -0.4964626,0.2042802 -0.1894234,0.2042801 -0.1894234,0.5459851 0,0.3243721 0.1770428,0.5175096 0.1782807,0.1918995 0.4667492,0.1918995 0.2674212,0 0.4630349,-0.1188539 z"
       id="path3"
       style="font-size:14.8656px;font-family:LightNovelPopV2;-inkscape-font-specification:LightNovelPopV2;text-align:center;text-anchor:middle;fill:#ffffff;stroke:#ffffff;stroke-width:0.0448238" />
    <path
       style="font-size:14.8656px;font-family:'Segoe UI';-inkscape-font-specification:'Segoe UI';text-align:center;text-anchor:middle;fill:#ffffff;stroke:#ffffff;stroke-width:0.0448238"
       d="m 6.4991147,7.8818645 h -0.203042 v -1.876901 h 0.203042 z m 0.9409268,0.029713 q -0.28104,0 -0.4494163,-0.1770428 -0.1671383,-0.1782809 -0.1671383,-0.4717013 0,-0.3194198 0.1745667,-0.4989387 0.1745665,-0.1795189 0.4717013,-0.1795189 0.2835161,0 0.441988,0.1745665 0.1597098,0.1745667 0.1597098,0.484082 0,0.3033252 -0.1720905,0.4865583 -0.1708524,0.1819949 -0.4593207,0.1819949 z m 0.014856,-1.1563494 q -0.1956137,0 -0.3095154,0.1337108 -0.1139016,0.1324725 -0.1139016,0.366466 0,0.2253272 0.1151397,0.3553238 0.1151397,0.1299964 0.3082773,0.1299964 0.1968517,0 0.302087,-0.1275203 Q 7.863458,7.4856849 7.863458,7.2504532 7.863458,7.0127454 7.7569847,6.883987 7.6517494,6.7552285 7.4548975,6.7552281 Z m 1.8050934,1.0684471 q -0.1460912,0.087902 -0.3466571,0.087902 -0.2711355,0 -0.4382739,-0.1758046 Q 8.30916,7.5587305 8.30916,7.2776905 q 0,-0.3132295 0.1795188,-0.5026529 0.1795189,-0.1906614 0.4791298,-0.1906614 0.1671383,0 0.2946586,0.061903 v 0.2079943 q -0.1411391,-0.099045 -0.302087,-0.099045 -0.1943756,0 -0.3194198,0.1399011 -0.1238061,0.1386628 -0.1238061,0.3652281 0,0.2228509 0.1163776,0.3516093 0.117616,0.1287585 0.3144677,0.1287585 0.1659003,0 0.3119915,-0.1101875 z m 1.3593911,0.058189 H 10.334629 L 9.775025,7.2727383 H 9.770075 V 7.8818645 H 9.5670306 v -1.876901 h 0.203042 v 1.1897769 h 0.00495 L 10.307392,6.6140896 h 0.266183 L 9.9854963,7.2256919 Z"
       id="path4" />
    <rect
       style="font-variation-settings:normal;display:inline;opacity:1;vector-effect:none;fill:#f5f8ff;fill-opacity:1;stroke:none;stroke-width:0.0981935;stroke-linecap:butt;stroke-linejoin:miter;stroke-miterlimit:4;stroke-dasharray:none;stroke-dashoffset:0;stroke-opacity:1;-inkscape-stroke:none;stop-color:#000000;stop-opacity:1"
       id="rect4"
       width="9.6182709"
       height="12.909737"
       x="2.8108635"
       y="108.88218"
       ry="0.72913069" />
    <path
       d="m 5.9627253,19.257886 h -0.257618 l -0.30914,-0.51781 q -0.04251,-0.07213 -0.08244,-0.122368 -0.03993,-0.05152 -0.08244,-0.08373 -0.04122,-0.0322 -0.09017,-0.04637 -0.04766,-0.01546 -0.108199,-0.01546 h -0.177756 v 0.785732 h -0.216399 v -1.847116 h 0.551301 q 0.12108,0 0.222839,0.03092 0.103047,0.02962 0.177756,0.09145 0.076,0.06183 0.118504,0.15457 0.04251,0.09145 0.04251,0.21511 0,0.09661 -0.02963,0.177756 -0.02834,0.07986 -0.08244,0.142978 -0.05281,0.06312 -0.128808,0.108199 -0.07471,0.0438 -0.16874,0.06827 v 0.0052 q 0.04637,0.02061 0.07986,0.04766 0.03478,0.02576 0.06569,0.06183 0.03091,0.03607 0.06054,0.08244 0.03091,0.04508 0.06827,0.105623 z M 4.8549713,17.60656 v 0.669805 h 0.293684 q 0.08115,0 0.149417,-0.02447 0.06956,-0.02447 0.119792,-0.06956 0.05024,-0.04637 0.07857,-0.112064 0.02834,-0.06698 0.02834,-0.149417 0,-0.14813 -0.09661,-0.230568 -0.09532,-0.08373 -0.276938,-0.08373 z m 2.315979,1.044638 h -0.931287 q 0.0052,0.220263 0.118504,0.340055 0.113352,0.119792 0.311717,0.119792 0.222839,0 0.409611,-0.146842 v 0.198365 q -0.173891,0.126233 -0.459846,0.126233 -0.279515,0 -0.439238,-0.179045 -0.159722,-0.180331 -0.159722,-0.506217 0,-0.307853 0.173891,-0.501066 0.17518,-0.194501 0.434085,-0.194501 0.258906,0 0.400595,0.167452 0.14169,0.16745 0.14169,0.464999 z m -0.216399,-0.179044 q -0.0013,-0.182908 -0.08888,-0.284667 -0.0863,-0.101759 -0.240872,-0.101759 -0.149418,0 -0.253753,0.106911 -0.104335,0.106911 -0.128808,0.279515 z m 0.455983,0.738073 v -0.226703 q 0.172603,0.127521 0.379985,0.127521 0.278226,0 0.278226,-0.185485 0,-0.05281 -0.02447,-0.08888 -0.02318,-0.03735 -0.0644,-0.06569 -0.03993,-0.02834 -0.09532,-0.05023 -0.0541,-0.02319 -0.117216,-0.04766 -0.08759,-0.03478 -0.154571,-0.06956 -0.06569,-0.03607 -0.110775,-0.07986 -0.0438,-0.04508 -0.06698,-0.101758 -0.0219,-0.05668 -0.0219,-0.132673 0,-0.09274 0.04251,-0.163587 0.04251,-0.07213 0.113352,-0.119792 0.07084,-0.04895 0.161011,-0.07342 0.09145,-0.02447 0.18806,-0.02447 0.171315,0 0.306565,0.05925 v 0.213822 q -0.145554,-0.09532 -0.334903,-0.09532 -0.05925,0 -0.106911,0.01417 -0.04766,0.01288 -0.08244,0.03735 -0.03349,0.02447 -0.05281,0.05925 -0.01803,0.03349 -0.01803,0.07471 0,0.05152 0.01803,0.0863 0.01932,0.03478 0.05539,0.06183 0.03607,0.02705 0.08759,0.04895 0.05152,0.0219 0.117216,0.04766 0.08759,0.03349 0.157147,0.06956 0.06956,0.03478 0.118504,0.07986 0.04895,0.04379 0.07471,0.101759 0.02705,0.05796 0.02705,0.137825 0,0.09789 -0.0438,0.170027 -0.04251,0.07213 -0.11464,0.119792 -0.07213,0.04766 -0.166163,0.07084 -0.09403,0.02319 -0.197077,0.02319 -0.203517,0 -0.352936,-0.07857 z m 2.2593035,-0.559029 h -0.931286 q 0.0052,0.220263 0.118504,0.340055 0.113351,0.119792 0.311716,0.119792 0.222839,0 0.409611,-0.146842 v 0.198365 q -0.173891,0.126233 -0.459846,0.126233 -0.279515,0 -0.439237,-0.179045 -0.159723,-0.180331 -0.159723,-0.506217 0,-0.307853 0.173891,-0.501066 0.17518,-0.194501 0.434085,-0.194501 0.258906,0 0.400595,0.167452 0.14169,0.16745 0.14169,0.464999 z m -0.216398,-0.179044 q -0.0013,-0.182908 -0.08888,-0.284667 -0.0863,-0.101759 -0.240873,-0.101759 -0.149418,0 -0.253753,0.106911 -0.104335,0.106911 -0.128808,0.279515 z m 1.1476842,0.772852 q -0.07471,0.04122 -0.197077,0.04122 -0.346495,0 -0.346495,-0.386426 V 18.11922 H 9.8308488 v -0.180332 h 0.2267032 v -0.322021 l 0.211246,-0.06827 v 0.39029 h 0.332326 v 0.180332 h -0.332326 v 0.743226 q 0,0.132673 0.04508,0.189349 0.04508,0.05667 0.149418,0.05667 0.07986,0 0.137825,-0.04379 z"
       id="text1-7-4-5"
       style="font-size:14.8656px;font-family:'Segoe UI';-inkscape-font-specification:'Segoe UI';text-align:center;text-anchor:middle;fill:#ffffff;stroke:#ffffff;stroke-width:0.0466347"
       aria-label="Reset" />
    <path
       style="font-weight:600;font-size:11.9273px;font-family:'Segoe UI';-inkscape-font-specification:'Segoe UI Semi-Bold';text-align:center;text-anchor:middle;fill:#131313;stroke:#ffffff;stroke-width:0.0374253"
       d="m 6.6177393,112.10369 q -0.313364,0 -0.502394,-0.21247 -0.188019,-0.21247 -0.188019,-0.55286 0,-0.36575 0.192063,-0.58351 0.192062,-0.21776 0.5216,-0.21776 0.305277,0 0.491275,0.21142 0.187008,0.21142 0.187008,0.55286 0,0.37103 -0.191052,0.58668 -0.191051,0.21564 -0.510481,0.21564 z m 0.01112,-1.34567 q -0.199138,0 -0.324485,0.15539 -0.124334,0.1554 -0.124334,0.4091 0,0.25264 0.121302,0.40697 0.121303,0.15434 0.317408,0.15434 0.208236,0 0.328527,-0.14693 0.120292,-0.14694 0.120292,-0.41121 0,-0.27167 -0.117259,-0.41967 -0.116248,-0.14799 -0.321451,-0.14799 z m 1.8326775,1.3203 H 8.2270193 v -0.17125 h -0.004 q -0.102096,0.19662 -0.317408,0.19662 -0.36694,0 -0.36694,-0.46089 v -0.64693 h 0.234518 v 0.62156 q 0,0.29176 0.215312,0.29176 0.104118,0 0.170834,-0.0803 0.06773,-0.0803 0.06773,-0.21036 v -0.62262 h 0.2345185 z m 0.851138,-0.0116 q -0.06874,0.0359 -0.180943,0.0359 -0.301233,0 -0.301233,-0.30233 v -0.61206 h -0.172857 v -0.19239 h 0.172857 v -0.25053 l 0.234517,-0.0698 v 0.32029 h 0.247659 v 0.19239 h -0.247659 v 0.54123 q 0,0.0962 0.03336,0.13742 0.03336,0.0412 0.111194,0.0412 0.05964,0 0.103107,-0.0359 z"
       id="text1-7-0-5-2-3"
       aria-label="Out" />
    <text
       xml:space="preserve"
       id="text2"
       style="font-style:normal;font-variant:normal;font-weight:normal;font-stretch:normal;font-size:32px;font-family:'Segoe UI';-inkscape-font-specification:'Segoe UI';text-align:center;white-space:pre;shape-inside:url(#rect3-0);display:inline;fill:#ffffff;fill-opacity:1;stroke:#ffffff;stroke-width:0.565702;-inkscape-stroke:none"
       transform="matrix(0.26458333,0,0,0.26458333,2.240309e-7,-2.1e-6)" />
  </g>
</svg>
