<?xml version="1.0" encoding="UTF-8" standalone="no"?>
<!-- Created with Inkscape (http://www.inkscape.org/) -->

<svg
   width="10.16mm"
   height="128.5mm"
   viewBox="0 0 10.16 128.5"
   version="1.1"
   id="svg1"
   inkscape:version="1.3.2 (091e20e, 2023-11-25, custom)"
   sodipodi:docname="n_SequencerController.svg"
   xmlns:inkscape="http://www.inkscape.org/namespaces/inkscape"
   xmlns:sodipodi="http://sodipodi.sourceforge.net/DTD/sodipodi-0.dtd"
   xmlns:xlink="http://www.w3.org/1999/xlink"
   xmlns="http://www.w3.org/2000/svg"
   xmlns:svg="http://www.w3.org/2000/svg">
  <sodipodi:namedview
     id="namedview1"
     pagecolor="#ffffff"
     bordercolor="#999999"
     borderopacity="1"
     inkscape:showpageshadow="2"
     inkscape:pageopacity="0"
     inkscape:pagecheckerboard="0"
     inkscape:deskcolor="#d1d1d1"
     inkscape:document-units="mm"
     inkscape:zoom="1.0242632"
     inkscape:cx="56.137915"
     inkscape:cy="292.40531"
     inkscape:window-width="1920"
     inkscape:window-height="1009"
     inkscape:window-x="1854"
     inkscape:window-y="-8"
     inkscape:window-maximized="1"
     inkscape:current-layer="layer1" />
  <defs
     id="defs1">
    <rect
       x="-190.7011"
       y="291.66052"
       width="188.8315"
       height="122.92743"
       id="rect1-6" />
    <rect
       x="-0.0011496843"
       y="389.3349"
       width="57.601151"
       height="60.151909"
       id="rect3-2" />
    <linearGradient
       id="linearGradient3-8"
       inkscape:collect="always">
      <stop
         style="stop-color:#0a0a0a;stop-opacity:1;"
         offset="0"
         id="stop3-5" />
      <stop
         style="stop-color:#1f1f1f;stop-opacity:1;"
         offset="1"
         id="stop4-4" />
    </linearGradient>
    <linearGradient
       inkscape:collect="always"
       xlink:href="#linearGradient3-8"
       id="linearGradient1"
       gradientUnits="userSpaceOnUse"
       gradientTransform="translate(99.842695,47.995436)"
       x1="-94.762695"
       y1="80.504562"
       x2="-94.762695"
       y2="-47.995438" />
  </defs>
  <g
     inkscape:label="Layer 1"
     inkscape:groupmode="layer"
     id="layer1">
    <rect
       x="-0.0003038763"
       width="10.160607"
       height="128.5"
       fill="url(#uuid-925fcaa7-b9ea-42b9-97ca-be2178393fa0)"
       id="rect2"
       y="-1e-06"
       style="font-variation-settings:normal;vector-effect:none;fill:url(#linearGradient1);fill-opacity:1;stroke-width:0.465357;stroke-linecap:butt;stroke-linejoin:miter;stroke-miterlimit:4;stroke-dasharray:none;stroke-dashoffset:0;stroke-opacity:1;-inkscape-stroke:none;stop-color:#000000;opacity:1;stop-opacity:1"
       inkscape:label="base" />
    <path
       style="font-weight:600;font-size:10.6667px;font-family:'Segoe UI';-inkscape-font-specification:'Segoe UI Semi-Bold';text-align:center;text-anchor:middle;fill:#ffffff;stroke:#ffffff;stroke-width:0.0695314"
       d="m -5.7290955,114.32245 q -0.427193,0 -0.684887,-0.27698 -0.256316,-0.27699 -0.256316,-0.72072 0,-0.4768 0.261828,-0.76068 0.261828,-0.28387 0.71107,-0.28387 0.416169,0 0.669729,0.2756 0.254937,0.27561 0.254937,0.72072 0,0.48369 -0.26045,0.76481 -0.26045,0.28112 -0.695911,0.28112 z m 0.01516,-1.75424 q -0.271475,0 -0.442352,0.20257 -0.169499,0.20257 -0.169499,0.5333 0,0.32935 0.165365,0.53055 0.165365,0.20119 0.432705,0.20119 0.283877,0 0.447864,-0.19155 0.163987,-0.19155 0.163987,-0.53606 0,-0.35415 -0.159853,-0.54708 -0.158475,-0.19292 -0.438217,-0.19292 z m 2.498391,1.72117 h -0.319706 v -0.22324 h -0.0055 q -0.139183,0.25631 -0.432706,0.25631 -0.500229,0 -0.500229,-0.60082 v -0.84336 h 0.319706 v 0.81028 q 0,0.38034 0.293523,0.38034 0.141938,0 0.232889,-0.10473 0.09233,-0.10473 0.09233,-0.27423 v -0.81166 h 0.319706 z m 1.160312,-0.0152 q -0.09371,0.0469 -0.24667,0.0469 -0.410656,0 -0.410656,-0.39412 v -0.79788 h -0.235646 v -0.25081 h 0.235646 v -0.32659 l 0.319705,-0.0909 v 0.41754 h 0.337621 v 0.25081 h -0.33762 v 0.70555 q 0,0.1254 0.04547,0.17915 0.04548,0.0537 0.151585,0.0537 0.0813,0 0.14056,-0.0468 z"
       id="text1-7-0-5-2"
       aria-label="Out" />
    <path
       d="m 3.4228775,23.651733 h -0.257617 l -0.309141,-0.51781 q -0.04251,-0.07213 -0.08244,-0.122369 -0.03993,-0.05152 -0.08244,-0.08372 -0.04122,-0.0322 -0.09017,-0.04637 -0.04766,-0.01546 -0.108199,-0.01546 h -0.177756 v 0.785732 H 2.0987155 V 21.80462 h 0.551301 q 0.12108,0 0.222839,0.03092 0.103047,0.02963 0.177756,0.09145 0.076,0.06183 0.118504,0.15457 0.04251,0.09145 0.04251,0.21511 0,0.09661 -0.02963,0.177756 -0.02834,0.07986 -0.08244,0.142978 -0.05281,0.06312 -0.128809,0.108199 -0.07471,0.04379 -0.16874,0.06827 v 0.0052 q 0.04637,0.02061 0.07986,0.04766 0.03478,0.02576 0.06569,0.06183 0.03091,0.03607 0.06054,0.08244 0.03091,0.04508 0.06827,0.105623 z m -1.107754,-1.651326 v 0.669805 h 0.293684 q 0.08115,0 0.149418,-0.02447 0.06956,-0.02447 0.119792,-0.06956 0.05024,-0.04637 0.07857,-0.112064 0.02834,-0.06698 0.02834,-0.149417 0,-0.14813 -0.09661,-0.230568 -0.09532,-0.08373 -0.276938,-0.08373 z m 2.315979,1.044638 h -0.931287 q 0.0052,0.220263 0.118505,0.340055 0.113351,0.119791 0.311716,0.119791 0.222839,0 0.409611,-0.146841 v 0.198365 q -0.173891,0.126233 -0.459846,0.126233 -0.279515,0 -0.439238,-0.179045 -0.159722,-0.180332 -0.159722,-0.506217 0,-0.307853 0.173891,-0.501066 0.17518,-0.194501 0.434086,-0.194501 0.258905,0 0.400594,0.167452 0.14169,0.16745 0.14169,0.464998 z m -0.216399,-0.179044 q -0.0013,-0.182909 -0.08888,-0.284668 -0.0863,-0.101758 -0.240873,-0.101758 -0.149418,0 -0.253753,0.106911 -0.104335,0.106911 -0.128808,0.279515 z m 0.455983,0.738073 v -0.226703 q 0.172603,0.12752 0.379985,0.12752 0.278227,0 0.278227,-0.185484 0,-0.05281 -0.02447,-0.08888 -0.02319,-0.03735 -0.0644,-0.06569 -0.03993,-0.02834 -0.09532,-0.05024 -0.0541,-0.02318 -0.117216,-0.04766 -0.08759,-0.03478 -0.15457,-0.06956 -0.06569,-0.03607 -0.110776,-0.07986 -0.04379,-0.04508 -0.06698,-0.101759 -0.0219,-0.05668 -0.0219,-0.132673 0,-0.09274 0.04251,-0.163586 0.04251,-0.07213 0.113352,-0.119792 0.07084,-0.04895 0.161011,-0.07342 0.09145,-0.02447 0.18806,-0.02447 0.171316,0 0.306565,0.05925 v 0.213822 q -0.145554,-0.09532 -0.334903,-0.09532 -0.05925,0 -0.106911,0.01417 -0.04766,0.01288 -0.08244,0.03735 -0.03349,0.02447 -0.05281,0.05925 -0.01803,0.03349 -0.01803,0.07471 0,0.05152 0.01803,0.0863 0.01932,0.03478 0.05539,0.06183 0.03607,0.02705 0.08759,0.04895 0.05152,0.0219 0.117215,0.04766 0.08759,0.03349 0.157147,0.06956 0.06956,0.03478 0.118504,0.07986 0.04895,0.0438 0.07471,0.10176 0.02705,0.05796 0.02705,0.137825 0,0.09789 -0.04379,0.170027 -0.04251,0.07213 -0.114639,0.119792 -0.07213,0.04766 -0.166164,0.07084 -0.09403,0.02319 -0.197077,0.02319 -0.203517,0 -0.352935,-0.07857 z m 2.259303,-0.559029 h -0.931286 q 0.0052,0.220263 0.118504,0.340055 0.113351,0.119791 0.311716,0.119791 0.222839,0 0.409612,-0.146841 v 0.198365 q -0.173892,0.126233 -0.459847,0.126233 -0.279515,0 -0.439237,-0.179045 -0.159723,-0.180332 -0.159723,-0.506217 0,-0.307853 0.173892,-0.501066 0.175179,-0.194501 0.434084,-0.194501 0.258906,0 0.400595,0.167452 0.14169,0.16745 0.14169,0.464998 z m -0.216398,-0.179044 q -0.0013,-0.182909 -0.08888,-0.284668 -0.0863,-0.101758 -0.240872,-0.101758 -0.149419,0 -0.253753,0.106911 -0.104336,0.106911 -0.128809,0.279515 z m 1.147684,0.772851 q -0.07471,0.04122 -0.197077,0.04122 -0.346495,0 -0.346495,-0.386426 v -0.78058 h -0.226703 v -0.180332 h 0.226703 v -0.322022 l 0.211246,-0.06827 v 0.39029 h 0.332326 v 0.180332 h -0.332326 v 0.743226 q 0,0.132673 0.04508,0.189348 0.04508,0.05668 0.149418,0.05668 0.07986,0 0.137825,-0.0438 z"
       id="text1-7-4-5"
       style="font-size:14.8656px;font-family:'Segoe UI';-inkscape-font-specification:'Segoe UI';text-align:center;text-anchor:middle;fill:#ffffff;stroke:#ffffff;stroke-width:0.0466347"
       aria-label="Reset" />
    <text
       xml:space="preserve"
       id="text2"
       style="font-style:normal;font-variant:normal;font-weight:normal;font-stretch:normal;font-size:32px;font-family:'Segoe UI';-inkscape-font-specification:'Segoe UI';text-align:center;white-space:pre;shape-inside:url(#rect3-2);display:inline;fill:#ffffff;fill-opacity:1;stroke:#ffffff;stroke-width:0.565702;-inkscape-stroke:none"
       transform="matrix(0.26458333,0,0,0.26458333,4.9619772e-7,-1.09e-6)" />
    <path
       d="M 3.3983704,7.6539831 Q 3.2015185,7.7579802 2.9080981,7.7579802 2.5292513,7.7579802 2.301448,7.5140821 2.0736448,7.270184 2.0736448,6.8740044 q 0,-0.4258931 0.2562787,-0.6883621 0.2562785,-0.2624691 0.6499821,-0.2624691 0.2525645,0 0.4184648,0.073046 V 6.2178318 Q 3.2077089,6.1113585 2.9774295,6.1113585 q -0.3058012,0 -0.4964626,0.2042802 -0.1894234,0.2042801 -0.1894234,0.5459851 0,0.3243721 0.1770428,0.5175096 0.1782807,0.1918995 0.4667492,0.1918995 0.2674212,0 0.4630349,-0.1188539 z"
       id="path3"
       style="font-size:14.8656px;font-family:LightNovelPopV2;-inkscape-font-specification:LightNovelPopV2;text-align:center;text-anchor:middle;fill:#ffffff;stroke:#ffffff;stroke-width:0.0448238" />
    <path
       style="font-size:14.8656px;font-family:'Segoe UI';-inkscape-font-specification:'Segoe UI';text-align:center;text-anchor:middle;fill:#ffffff;stroke:#ffffff;stroke-width:0.0448238"
       d="m 3.9356889,7.7282668 h -0.203042 v -1.876901 h 0.203042 z m 0.9409268,0.029713 q -0.28104,0 -0.4494163,-0.1770428 -0.1671383,-0.1782809 -0.1671383,-0.4717013 0,-0.3194198 0.1745667,-0.4989387 0.1745665,-0.1795189 0.4717013,-0.1795189 0.2835161,0 0.441988,0.1745665 0.1597098,0.1745667 0.1597098,0.484082 0,0.3033252 -0.1720905,0.4865583 Q 5.165084,7.7579802 4.8766157,7.7579798 Z m 0.014856,-1.1563494 q -0.1956137,0 -0.3095154,0.1337108 -0.1139016,0.1324725 -0.1139016,0.366466 0,0.2253272 0.1151397,0.3553238 0.1151397,0.1299964 0.3082773,0.1299964 0.1968517,0 0.302087,-0.1275203 0.1064733,-0.1275203 0.1064733,-0.362752 0,-0.2377078 -0.1064733,-0.3664662 Q 5.0883236,6.6016308 4.8914717,6.6016304 Z m 1.8050934,1.0684471 q -0.1460912,0.087902 -0.3466571,0.087902 -0.2711355,0 -0.4382739,-0.1758046 Q 5.745734,7.4051321 5.745734,7.1240921 q 0,-0.3132295 0.1795188,-0.5026529 0.1795189,-0.1906614 0.4791298,-0.1906614 0.1671383,0 0.2946586,0.061903 v 0.2079943 q -0.1411391,-0.099045 -0.302087,-0.099045 -0.1943756,0 -0.3194198,0.1399011 -0.1238061,0.1386628 -0.1238061,0.3652281 0,0.2228509 0.1163776,0.3516093 0.117616,0.1287585 0.3144677,0.1287585 0.1659003,0 0.3119915,-0.1101875 z m 1.3593913,0.058189 H 7.7712029 L 7.2115992,7.1191406 H 7.206646 V 7.7282668 H 7.0036048 v -1.876901 h 0.203042 V 7.0411427 H 7.2116 L 7.7439664,6.4604919 H 8.0101496 L 7.4220705,7.0720942 Z"
       id="path4" />
    <path
       style="font-weight:600;font-size:8px;font-family:'Segoe UI';-inkscape-font-specification:'Segoe UI Semi-Bold';text-align:center;text-anchor:middle;fill:#ffffff;fill-opacity:1;stroke:none;stroke-width:0.0695314"
       d="m 3.9891105,59.178011 h -0.243912 v -0.959115 q 0,-0.117821 0.01447,-0.288356 h -0.0041 q -0.02274,0.09715 -0.04031,0.139528 l -0.442351,1.107943 h -0.169498 l -0.443383,-1.099674 q -0.0186,-0.04858 -0.03927,-0.147797 h -0.0041 q 0.0083,0.08888 0.0083,0.290423 v 0.957048 h -0.227375 v -1.482079 h 0.346232 l 0.389641,0.987017 q 0.04444,0.113689 0.05788,0.1695 h 0.0052 q 0.03824,-0.11679 0.06201,-0.173633 l 0.396875,-0.982884 h 0.33383 z m 0.807186,0.02479 q -0.244946,0 -0.391707,-0.147796 -0.145727,-0.148828 -0.145727,-0.393774 0,-0.26665 0.151928,-0.416512 0.152962,-0.14986 0.411345,-0.14986 0.248047,0 0.386539,0.145727 0.138493,0.145727 0.138493,0.404109 0,0.253214 -0.149861,0.406177 -0.148829,0.151929 -0.40101,0.151929 z m 0.01137,-0.916741 q -0.14056,0 -0.222209,0.09819 -0.08165,0.09818 -0.08165,0.270785 0,0.166396 0.08268,0.262514 0.08268,0.09509 0.221175,0.09509 0.141593,0 0.217041,-0.09405 0.07648,-0.09405 0.07648,-0.267685 0,-0.174667 -0.07648,-0.26975 -0.07545,-0.09509 -0.217041,-0.09509 z m 1.74563,0.891937 h -0.239779 v -0.179835 h -0.0041 q -0.115756,0.204639 -0.356568,0.204639 -0.195337,0 -0.313159,-0.141594 -0.116789,-0.142626 -0.116789,-0.387572 0,-0.262517 0.129191,-0.420648 0.130225,-0.158128 0.346232,-0.158128 0.213941,0 0.311093,0.171566 h 0.0041 v -0.655259 h 0.239779 z m -0.236679,-0.483693 v -0.138491 q 0,-0.112657 -0.07338,-0.191204 -0.07338,-0.07855 -0.187069,-0.07855 -0.134358,0 -0.211873,0.100253 -0.07648,0.100253 -0.07648,0.278019 0,0.161232 0.07338,0.255283 0.07441,0.09302 0.199471,0.09302 0.12299,0 0.199471,-0.08992 0.07648,-0.09095 0.07648,-0.22841 z m 1.445907,0.01963 h -0.721403 q 0.0041,0.146762 0.08992,0.226343 0.08682,0.07958 0.237712,0.07958 0.169498,0 0.311092,-0.101286 v 0.193271 q -0.144694,0.09095 -0.382406,0.09095 -0.233577,0 -0.366902,-0.143661 -0.132292,-0.144695 -0.132292,-0.406177 0,-0.247013 0.145727,-0.402043 0.146762,-0.156062 0.363802,-0.156062 0.217042,0 0.335897,0.139526 0.118856,0.139528 0.118856,0.387575 z m -0.23151,-0.169497 q -0.001,-0.129191 -0.06098,-0.200507 -0.05994,-0.07234 -0.165364,-0.07234 -0.103353,0 -0.1757,0.07545 -0.07131,0.07545 -0.08785,0.197406 z"
       id="text1-7-0-5-2-7-4-0"
       aria-label="Mode" />
    <path
       style="font-size:14.6667px;font-family:Revamped;-inkscape-font-specification:Revamped;text-align:center;text-anchor:middle;white-space:pre;shape-padding:3.96606;fill:#b9b9b9;fill-opacity:1;stroke-width:0.281281"
       d="m 6.1482525,120.12629 q 0.356081,0 0.356081,-0.35609 h 1.06826 q 0,1.78043 -1.424341,1.78043 h -2.136514 q -1.42434,0 -1.42434,-1.78043 v -1.42434 h 1.068254 v 1.42434 q 0,0.35609 0.356086,0.35609 z m -2.136514,-2.4926 q -0.356086,0 -0.356086,0.35609 h -1.068254 q 0,-1.78043 1.42434,-1.78043 h 0.712173 v 1.42434 z m 3.560855,0.35609 v 1.42434 h -1.06826 v -1.42434 q 0,-0.35609 -0.356081,-0.35609 h -0.712173 v -1.42434 h 0.712173 q 1.424341,0 1.424341,1.78043 z m -3.560855,-6.40953 q -0.356086,0 -0.356086,0.35608 h -1.068254 q 0,-1.78042 1.42434,-1.78042 h 2.136514 q 1.424341,0 1.424341,1.78042 v 1.42434 h -1.06826 v -1.42434 q 0,-0.35608 -0.356081,-0.35608 z m 2.136514,2.49259 q 0.356081,0 0.356081,-0.35609 h 1.06826 q 0,1.78043 -1.424341,1.78043 h -2.136514 q -1.42434,0 -1.42434,-1.78043 v -1.42434 h 1.068254 v 1.42434 q 0,0.35609 0.356086,0.35609 z m -4.629109,-4.62911 5.341277,-5.34127 h 1.780427 l -5.341276,5.34127 z m 3.41842,-3.91693 h -2.350165 v -1.42434 h 3.774506 z m 0.284865,2.49259 h 2.350165 v 1.42434 h -3.774506 z m -1.566776,-9.614297 v 4.985187 l -1.068254,0.71218 v -5.697367 z m 0.356086,3.204767 v -1.42434 h 3.560855 v 1.42434 z m 3.560855,-5.34128 v 1.424342 H 4.0117385 V 96.26858 Z m -3.916941,-2.13651 v 3.560852 l -1.068254,0.712171 V 94.13207 q 0,-1.780426 1.42434,-1.780426 h 0.356087 q 1.143032,0 1.367369,1.146595 l 1.837399,-1.146595 v 1.780426 l -2.848682,1.780426 V 94.13207 q 0,-0.356084 -0.356086,-0.356084 h -0.356087 q -0.356086,0 -0.356086,0.356084 z m 0.356086,-6.409531 q -0.356086,0 -0.356086,0.356084 h -1.068254 q 0,-1.780426 1.42434,-1.780426 h 2.136514 q 1.424341,0 1.424341,1.780426 v 1.424339 h -1.06826 v -1.424339 q 0,-0.356084 -0.356081,-0.356084 z m 2.136514,2.492594 q 0.356081,0 0.356081,-0.356084 h 1.06826 q 0,1.780426 -1.424341,1.780426 h -2.136514 q -1.42434,0 -1.42434,-1.780426 v -1.424342 h 1.068254 v 1.424342 q 0,0.356084 0.356086,0.356084 z m 0,-6.053447 v 1.42434 h -3.560854 v -1.42434 z m 0.356081,1.42434 v -4.985192 h 1.06826 v 4.985192 z"
       id="text1"
       aria-label="CONTROL" />
    <text
       xml:space="preserve"
       id="text1-4"
       style="font-weight:600;font-size:14.6667px;font-family:'Segoe UI';-inkscape-font-specification:'Segoe UI Semi-Bold';text-align:center;white-space:pre;shape-inside:url(#rect1-6);shape-padding:3.96606;display:inline;fill:#ffffff;stroke-width:0.565702;-inkscape-stroke:none"
       transform="matrix(0,-0.49722325,0.49722325,0,-161.72282,55.846346)"><tspan
         x="-138.17978"
         y="308.86596"
         id="tspan3"><tspan
           style="font-weight:normal;font-family:Revamped;-inkscape-font-specification:Revamped"
           id="tspan2">CONTROL</tspan></tspan></text>
  </g>
</svg>
