<?xml version="1.0" encoding="UTF-8" standalone="no"?>
<!-- Created with Inkscape (http://www.inkscape.org/) -->

<svg
   width="147.32001mm"
   height="128.5mm"
   viewBox="0 0 147.32001 128.5"
   version="1.1"
   id="svg1"
   inkscape:version="1.3.2 (091e20e, 2023-11-25, custom)"
   sodipodi:docname="n_SixtyFourGatePitchSeq.svg"
   xmlns:inkscape="http://www.inkscape.org/namespaces/inkscape"
   xmlns:sodipodi="http://sodipodi.sourceforge.net/DTD/sodipodi-0.dtd"
   xmlns:xlink="http://www.w3.org/1999/xlink"
   xmlns="http://www.w3.org/2000/svg"
   xmlns:svg="http://www.w3.org/2000/svg">
  <sodipodi:namedview
     id="namedview1"
     pagecolor="#ffffff"
     bordercolor="#999999"
     borderopacity="1"
     inkscape:showpageshadow="2"
     inkscape:pageopacity="0"
     inkscape:pagecheckerboard="0"
     inkscape:deskcolor="#d1d1d1"
     inkscape:document-units="mm"
     inkscape:zoom="1.4485269"
     inkscape:cx="231.61461"
     inkscape:cy="222.63998"
     inkscape:window-width="1920"
     inkscape:window-height="1009"
     inkscape:window-x="1854"
     inkscape:window-y="-8"
     inkscape:window-maximized="1"
     inkscape:current-layer="layer1" />
  <defs
     id="defs1">
    <linearGradient
       id="linearGradient3"
       inkscape:collect="always">
      <stop
         style="stop-color:#0a0a0a;stop-opacity:1;"
         offset="0"
         id="stop3" />
      <stop
         style="stop-color:#1f1f1f;stop-opacity:1;"
         offset="1"
         id="stop4" />
    </linearGradient>
    <rect
       x="-0.0011496843"
       y="389.3349"
       width="57.601151"
       height="60.151909"
       id="rect3" />
    <linearGradient
       inkscape:collect="always"
       xlink:href="#linearGradient3"
       id="linearGradient4"
       x1="73.660004"
       y1="128.5"
       x2="73.660004"
       y2="8.8817842e-15"
       gradientUnits="userSpaceOnUse" />
  </defs>
  <g
     inkscape:label="Layer 1"
     inkscape:groupmode="layer"
     id="layer1">
    <rect
       x="-0.00030517578"
       width="147.32062"
       height="128.5"
       fill="url(#uuid-925fcaa7-b9ea-42b9-97ca-be2178393fa0)"
       id="rect2"
       y="8.8817842e-15"
       style="font-variation-settings:normal;vector-effect:none;fill:url(#linearGradient4);fill-opacity:1;stroke-width:0.465357;stroke-linecap:butt;stroke-linejoin:miter;stroke-miterlimit:4;stroke-dasharray:none;stroke-dashoffset:0;stroke-opacity:1;-inkscape-stroke:none;stop-color:#000000"
       inkscape:label="rect" />
    <text
       xml:space="preserve"
       style="font-size:2.11667px;font-family:LightNovelPopV2;-inkscape-font-specification:LightNovelPopV2;text-align:center;text-anchor:middle;fill:#ffffff;fill-opacity:1;stroke:#ffffff;stroke-width:0.0695314;-inkscape-stroke:none"
       x="-5.7934418"
       y="5.7545223"
       id="text1-7-0-0"><tspan
         sodipodi:role="line"
         id="tspan1-9-7-6"
         x="-5.7934418"
         y="5.7545223"
         style="font-size:2.11667px;stroke-width:0.0695314" /><tspan
         sodipodi:role="line"
         x="-5.7934418"
         y="8.4003592"
         id="tspan2-6-7-9"
         style="font-style:normal;font-variant:normal;font-weight:normal;font-stretch:normal;font-size:2.11667px;font-family:'Segoe UI';-inkscape-font-specification:'Segoe UI';stroke-width:0.0695314">Clk x4</tspan></text>
    <g
       id="text1-7-0-0-6"
       style="font-size:8px;font-family:LightNovelPopV2;-inkscape-font-specification:LightNovelPopV2;text-align:center;text-anchor:middle;fill:#ffffff;stroke:#ffffff;stroke-width:0.262796"
       aria-label="&#10;Clk x4"
       transform="scale(0.26458333)">
      <path
         d="m 22.410421,30.841055 q -0.621093,0.328125 -1.546875,0.328125 -1.195312,0 -1.914062,-0.769531 -0.71875,-0.769532 -0.71875,-2.019532 0,-1.34375 0.808594,-2.171875 0.808593,-0.828125 2.050781,-0.828125 0.796875,0 1.320312,0.230469 v 0.699219 q -0.601562,-0.335938 -1.328125,-0.335938 -0.964843,0 -1.566406,0.644532 -0.597656,0.644531 -0.597656,1.722656 0,1.023437 0.558594,1.632812 0.5625,0.605469 1.472656,0.605469 0.84375,0 1.460937,-0.375 z"
         id="path1" />
      <path
         style="font-family:'Segoe UI';-inkscape-font-specification:'Segoe UI'"
         d="m 24.105734,31.07543 h -0.640625 v -5.921875 h 0.640625 z m 4.617187,0 h -0.898437 l -1.765625,-1.921875 h -0.01563 v 1.921875 h -0.640625 v -5.921875 h 0.640625 v 3.753906 h 0.01563 l 1.679687,-1.832031 h 0.839844 l -1.855469,1.929687 z m 5.769532,-4 -1.34375,2.023437 1.320312,1.976563 h -0.746094 l -0.785156,-1.296875 q -0.07422,-0.121094 -0.175781,-0.304688 h -0.01563 q -0.01953,0.03516 -0.183594,0.304688 l -0.800781,1.296875 h -0.738281 l 1.363281,-1.960938 -1.304688,-2.039062 h 0.746094 l 0.773438,1.367187 q 0.08594,0.152344 0.167968,0.3125 h 0.01563 l 1,-1.679687 z m 3.421875,-1.601563 v 3.699219 h 0.71875 v 0.585938 h -0.71875 v 1.316406 h -0.632813 v -1.316406 h -2.632812 v -0.554688 q 0.367187,-0.414062 0.742187,-0.882812 0.375,-0.472657 0.714844,-0.957032 0.34375,-0.484375 0.632812,-0.964843 0.292969,-0.484375 0.492188,-0.925782 z m -2.542969,3.699219 h 1.910156 v -2.742187 q -0.292969,0.511718 -0.554687,0.914062 -0.261719,0.402344 -0.5,0.730469 -0.234375,0.328125 -0.449219,0.59375 -0.214844,0.265625 -0.40625,0.503906 z"
         id="path2" />
    </g>
    <text
       xml:space="preserve"
       style="font-size:2.11667px;font-family:LightNovelPopV2;-inkscape-font-specification:LightNovelPopV2;text-align:center;text-anchor:middle;fill:#ffffff;fill-opacity:1;stroke:#ffffff;stroke-width:0.0695314;-inkscape-stroke:none"
       x="-5.7515869"
       y="111.54666"
       id="text1-7-0-5-2"><tspan
         sodipodi:role="line"
         x="-5.7515869"
         y="111.54666"
         id="tspan2-6-7-0-3"
         style="font-style:normal;font-variant:normal;font-weight:600;font-stretch:normal;font-size:2.11667px;font-family:'Segoe UI';-inkscape-font-specification:'Segoe UI Semi-Bold';stroke-width:0.0695314">Velocity</tspan></text>
    <text
       xml:space="preserve"
       style="font-style:normal;font-variant:normal;font-weight:normal;font-stretch:normal;font-size:2.11667px;font-family:'Segoe UI';-inkscape-font-specification:'Segoe UI';text-align:center;text-anchor:middle;fill:#ffffff;fill-opacity:1;stroke:#ffffff;stroke-width:0.0695314;-inkscape-stroke:none"
       x="-5.8156624"
       y="23.056995"
       id="text1-7-4-5-5"><tspan
         sodipodi:role="line"
         x="-5.8156624"
         y="23.056995"
         id="tspan2-6-2-9-3"
         style="font-style:normal;font-variant:normal;font-weight:normal;font-stretch:normal;font-size:2.11667px;font-family:'Segoe UI';-inkscape-font-specification:'Segoe UI';stroke-width:0.0695314">Reset</tspan></text>
    <text
       xml:space="preserve"
       style="font-style:normal;font-variant:normal;font-weight:normal;font-stretch:normal;font-size:2.11667px;font-family:'Segoe UI';-inkscape-font-specification:'Segoe UI';text-align:center;text-anchor:middle;fill:#ffffff;fill-opacity:1;stroke:#ffffff;stroke-width:0.0695314;-inkscape-stroke:none"
       x="-5.7572708"
       y="37.798382"
       id="text1-7-4-5-5-2"><tspan
         sodipodi:role="line"
         x="-5.7572708"
         y="37.798382"
         id="tspan2-6-2-9-3-2"
         style="font-style:normal;font-variant:normal;font-weight:normal;font-stretch:normal;font-size:2.11667px;font-family:'Segoe UI';-inkscape-font-specification:'Segoe UI';stroke-width:0.0695314">Record</tspan></text>
    <text
       xml:space="preserve"
       style="font-style:normal;font-variant:normal;font-weight:normal;font-stretch:normal;font-size:2.11667px;font-family:'Segoe UI';-inkscape-font-specification:'Segoe UI';text-align:center;text-anchor:middle;fill:#ffffff;fill-opacity:1;stroke:#ffffff;stroke-width:0.0695314;-inkscape-stroke:none"
       x="-5.8156624"
       y="52.539772"
       id="text1-7-4-5-5-2-3"><tspan
         sodipodi:role="line"
         x="-5.8156624"
         y="52.539772"
         id="tspan2-6-2-9-3-2-9"
         style="font-style:normal;font-variant:normal;font-weight:normal;font-stretch:normal;font-size:2.11667px;font-family:'Segoe UI';-inkscape-font-specification:'Segoe UI';stroke-width:0.0695314">Edit</tspan></text>
    <text
       xml:space="preserve"
       style="font-style:normal;font-variant:normal;font-weight:normal;font-stretch:normal;font-size:2.11667px;font-family:'Segoe UI';-inkscape-font-specification:'Segoe UI';text-align:center;text-anchor:middle;fill:#ffffff;fill-opacity:1;stroke:#ffffff;stroke-width:0.0695314;-inkscape-stroke:none"
       x="-5.7500343"
       y="67.221214"
       id="text1-7-4-5-5-2-7"><tspan
         sodipodi:role="line"
         x="-5.7500343"
         y="67.221214"
         id="tspan2-6-2-9-3-2-5"
         style="font-style:normal;font-variant:normal;font-weight:normal;font-stretch:normal;font-size:2.11667px;font-family:'Segoe UI';-inkscape-font-specification:'Segoe UI';stroke-width:0.0695314">Gates</tspan></text>
    <text
       xml:space="preserve"
       style="font-style:normal;font-variant:normal;font-weight:normal;font-stretch:normal;font-size:2.11667px;font-family:'Segoe UI';-inkscape-font-specification:'Segoe UI';text-align:center;text-anchor:middle;fill:#ffffff;fill-opacity:1;stroke:#ffffff;stroke-width:0.0695314;-inkscape-stroke:none"
       x="-5.7278137"
       y="81.902657"
       id="text1-7-4-5-5-2-2"><tspan
         sodipodi:role="line"
         x="-5.7278137"
         y="81.902657"
         id="tspan2-6-2-9-3-2-4"
         style="font-style:normal;font-variant:normal;font-weight:normal;font-stretch:normal;font-size:2.11667px;font-family:'Segoe UI';-inkscape-font-specification:'Segoe UI';stroke-width:0.0695314">V/Oct</tspan></text>
    <text
       xml:space="preserve"
       style="font-style:normal;font-variant:normal;font-weight:normal;font-stretch:normal;font-size:2.11667px;font-family:'Segoe UI';-inkscape-font-specification:'Segoe UI';text-align:center;text-anchor:middle;fill:#ffffff;fill-opacity:1;stroke:#ffffff;stroke-width:0.0695314;-inkscape-stroke:none"
       x="-5.7521019"
       y="96.805275"
       id="text1-7-4-5-5-2-0"><tspan
         sodipodi:role="line"
         x="-5.7521019"
         y="96.805275"
         id="tspan2-6-2-9-3-2-8"
         style="font-style:normal;font-variant:normal;font-weight:normal;font-stretch:normal;font-size:2.11667px;font-family:'Segoe UI';-inkscape-font-specification:'Segoe UI';stroke-width:0.0695314">Gate</tspan></text>
    <path
       style="font-weight:600;font-size:8px;font-family:'Segoe UI';-inkscape-font-specification:'Segoe UI Semi-Bold';text-align:center;text-anchor:middle;fill:#ffffff;stroke:none;stroke-width:0.0695314"
       d="m 5.0850309,109.88627 -0.532267,1.48208 h -0.274919 l -0.522965,-1.48208 h 0.268717 l 0.365869,1.12448 q 0.01757,0.0537 0.02687,0.12505 h 0.0041 q 0.0072,-0.0589 0.02997,-0.12712 l 0.374137,-1.12241 z m 0.930176,1.01802 h -0.721403 q 0.0041,0.14676 0.08992,0.22634 0.08682,0.0796 0.237711,0.0796 0.169499,0 0.311092,-0.10129 v 0.19327 q -0.144694,0.0909 -0.382405,0.0909 -0.233578,0 -0.366903,-0.14366 -0.132291,-0.14469 -0.132291,-0.40617 0,-0.24702 0.145727,-0.40205 0.146761,-0.15606 0.363802,-0.15606 0.217041,0 0.335897,0.13953 0.118856,0.13952 0.118856,0.38757 z m -0.231511,-0.1695 q -10e-4,-0.12919 -0.06098,-0.2005 -0.05994,-0.0724 -0.165364,-0.0724 -0.103353,0 -0.1757,0.0755 -0.07131,0.0754 -0.08785,0.1974 z m 0.700733,0.63356 h -0.240812 v -1.56683 h 0.240812 z m 0.781347,0.0248 q -0.244946,0 -0.391707,-0.1478 -0.145728,-0.14882 -0.145728,-0.39377 0,-0.26665 0.151929,-0.41651 0.152962,-0.14986 0.411345,-0.14986 0.248047,0 0.386539,0.14572 0.138493,0.14573 0.138493,0.40411 0,0.25322 -0.149862,0.40618 -0.148828,0.15193 -0.401009,0.15193 z m 0.01137,-0.91674 q -0.140559,0 -0.222208,0.0982 -0.08165,0.0982 -0.08165,0.27079 0,0.1664 0.08268,0.26252 0.08268,0.0951 0.221175,0.0951 0.141594,0 0.217042,-0.094 0.07648,-0.094 0.07648,-0.26769 0,-0.17466 -0.07648,-0.26975 -0.07545,-0.0951 -0.217042,-0.0951 z m 1.540992,0.84336 q -0.127124,0.0734 -0.300757,0.0734 -0.235645,0 -0.380339,-0.14676 -0.144694,-0.1478 -0.144694,-0.38241 0,-0.26148 0.15503,-0.41961 0.156062,-0.15916 0.416511,-0.15916 0.144695,0 0.255282,0.0506 v 0.22324 q -0.110587,-0.0827 -0.235644,-0.0827 -0.151929,0 -0.249081,0.10335 -0.09715,0.10232 -0.09715,0.26872 0,0.16433 0.09095,0.25942 0.09198,0.0951 0.24598,0.0951 0.129191,0 0.243913,-0.092 z m 0.358634,-1.23197 q -0.05891,0 -0.101286,-0.0382 -0.04134,-0.0382 -0.04134,-0.0971 0,-0.0589 0.04134,-0.0982 0.04237,-0.0393 0.101286,-0.0393 0.06098,0 0.103353,0.0393 0.04237,0.0393 0.04237,0.0982 0,0.0558 -0.04237,0.0961 -0.04237,0.0393 -0.103353,0.0393 z m 0.118856,1.28054 h -0.239779 v -1.05833 h 0.239779 z m 0.8712641,-0.0114 q -0.07028,0.0351 -0.1850011,0.0351 -0.307992,0 -0.307992,-0.29559 v -0.59842 h -0.176733 v -0.1881 h 0.176733 v -0.24494 l 0.239779,-0.0682 v 0.31316 h 0.2532141 v 0.1881 H 9.9136779 v 0.52917 q 0,0.094 0.03411,0.13436 0.03411,0.0403 0.1136891,0.0403 0.06098,0 0.105419,-0.0351 z m 1.123446,-1.04697 -0.47749,1.22784 q -0.148828,0.32866 -0.417546,0.32866 -0.07545,0 -0.12609,-0.0135 v -0.19946 q 0.05684,0.0186 0.103353,0.0186 0.134358,0 0.200504,-0.1323 l 0.07131,-0.17363 -0.420646,-1.05627 h 0.265616 l 0.252181,0.76895 q 0.0041,0.0145 0.0186,0.0765 h 0.0052 q 0.0052,-0.0238 0.0186,-0.0744 l 0.264584,-0.77102 z"
       id="text1-7-0-5-2-6"
       aria-label="Velocity" />
    <path
       d="m 6.1929739,22.878681 h -0.206706 l -0.248047,-0.415479 q -0.03411,-0.05788 -0.06615,-0.09818 -0.03204,-0.04134 -0.06615,-0.06718 -0.03307,-0.02584 -0.07235,-0.03721 -0.03824,-0.0124 -0.08682,-0.0124 h -0.142627 v 0.630452 h -0.173633 v -1.48208 h 0.442351 q 0.09715,0 0.1788,0.02481 0.08268,0.02377 0.142627,0.07338 0.06098,0.04961 0.09509,0.124024 0.03411,0.07338 0.03411,0.172599 0,0.07752 -0.02377,0.142627 -0.02274,0.06408 -0.06615,0.114722 -0.04237,0.05064 -0.103353,0.08682 -0.05994,0.03514 -0.135392,0.05478 v 0.0041 q 0.03721,0.01654 0.06408,0.03824 0.0279,0.02067 0.05271,0.04961 0.0248,0.02894 0.04857,0.06615 0.02481,0.03617 0.05478,0.08475 z m -0.888835,-1.324984 v 0.537435 h 0.235645 q 0.06511,0 0.119889,-0.01964 0.05581,-0.01964 0.09612,-0.05581 0.04031,-0.03721 0.06304,-0.08992 0.02274,-0.05374 0.02274,-0.119889 0,-0.118856 -0.07751,-0.185002 -0.07648,-0.06718 -0.222209,-0.06718 z m 1.858284,0.838192 h -0.747241 q 0.0041,0.176733 0.09508,0.272851 0.09095,0.09612 0.250114,0.09612 0.1788,0 0.328662,-0.117822 v 0.159164 q -0.139526,0.101286 -0.36897,0.101286 -0.224275,0 -0.352433,-0.143661 -0.128158,-0.144694 -0.128158,-0.406177 0,-0.247013 0.139527,-0.402042 0.14056,-0.156063 0.348299,-0.156063 0.207739,0 0.321427,0.134358 0.113688,0.134359 0.113688,0.373104 z m -0.173632,-0.143661 q -10e-4,-0.146761 -0.07131,-0.228409 -0.06925,-0.08165 -0.19327,-0.08165 -0.119889,0 -0.203605,0.08578 -0.08372,0.08578 -0.103353,0.224275 z m 0.365869,0.592212 v -0.181901 q 0.138493,0.102319 0.304891,0.102319 0.223242,0 0.223242,-0.148828 0,-0.04237 -0.01964,-0.07131 -0.0186,-0.02997 -0.05168,-0.05271 -0.03204,-0.02274 -0.07648,-0.04031 -0.04341,-0.0186 -0.09405,-0.03824 -0.07028,-0.02791 -0.124023,-0.05581 -0.05271,-0.02894 -0.08888,-0.06408 -0.03514,-0.03617 -0.05374,-0.08165 -0.01757,-0.04548 -0.01757,-0.106454 0,-0.07441 0.03411,-0.131258 0.03411,-0.05788 0.09095,-0.09612 0.05684,-0.03927 0.129191,-0.05891 0.07338,-0.01964 0.150895,-0.01964 0.137459,0 0.24598,0.04754 v 0.171572 q -0.116789,-0.07648 -0.268718,-0.07648 -0.04754,0 -0.08578,0.01137 -0.03824,0.01034 -0.06615,0.02997 -0.02687,0.01964 -0.04237,0.04754 -0.01447,0.02687 -0.01447,0.05994 0,0.04134 0.01447,0.06925 0.0155,0.02791 0.04444,0.04961 0.02894,0.0217 0.07028,0.03927 0.04134,0.01757 0.09405,0.03824 0.07028,0.02687 0.12609,0.05581 0.05581,0.02791 0.09508,0.06408 0.03927,0.03514 0.05994,0.08165 0.0217,0.04651 0.0217,0.110588 0,0.07855 -0.03514,0.136425 -0.03411,0.05788 -0.09198,0.09612 -0.05788,0.03824 -0.133325,0.05684 -0.07545,0.0186 -0.15813,0.0186 -0.163297,0 -0.283187,-0.06305 z m 1.812809,-0.448551 h -0.747241 q 0.0041,0.176733 0.09508,0.272851 0.09095,0.09612 0.250113,0.09612 0.178801,0 0.328663,-0.117822 v 0.159164 q -0.139527,0.101286 -0.36897,0.101286 -0.224276,0 -0.352433,-0.143661 -0.128158,-0.144694 -0.128158,-0.406177 0,-0.247013 0.139526,-0.402042 0.14056,-0.156063 0.348299,-0.156063 0.20774,0 0.321428,0.134358 0.113688,0.134359 0.113688,0.373104 z m -0.173633,-0.143661 q -0.001,-0.146761 -0.07131,-0.228409 -0.06925,-0.08165 -0.19327,-0.08165 -0.11989,0 -0.203605,0.08578 -0.08372,0.08578 -0.103353,0.224275 z m 0.920874,0.620117 q -0.05994,0.03307 -0.15813,0.03307 -0.278019,0 -0.278019,-0.310058 v -0.626318 h -0.181901 v -0.144694 h 0.181901 v -0.258383 l 0.169499,-0.05478 v 0.31316 h 0.26665 v 0.144694 h -0.26665 v 0.596346 q 0,0.106453 0.03617,0.151928 0.03617,0.04548 0.11989,0.04548 0.06408,0 0.110587,-0.03514 z"
       id="text1-7-4-5-5-8"
       style="font-size:8px;font-family:'Segoe UI';-inkscape-font-specification:'Segoe UI';text-align:center;text-anchor:middle;fill:#ffffff;stroke:#ffffff;stroke-width:0.0695314"
       aria-label="Reset" />
    <path
       d="m 5.5561179,37.882406 h -0.206706 l -0.248046,-0.415478 q -0.03411,-0.05788 -0.06615,-0.09818 -0.03204,-0.04134 -0.06615,-0.06718 -0.03307,-0.02582 -0.07235,-0.03721 -0.03824,-0.01241 -0.08682,-0.01241 H 4.6672689 V 37.8824 h -0.173633 v -1.48208 h 0.44235 q 0.09715,0 0.1788,0.02479 0.08268,0.02379 0.142627,0.07338 0.06098,0.04961 0.09509,0.124024 0.03411,0.07338 0.03411,0.172598 0,0.07751 -0.02377,0.142626 -0.02274,0.06408 -0.06615,0.114723 -0.04237,0.05064 -0.103352,0.08682 -0.05994,0.03514 -0.135392,0.05478 v 0.0041 q 0.03721,0.01654 0.06408,0.03824 0.02791,0.02066 0.05271,0.04961 0.0248,0.02894 0.04858,0.06615 0.02481,0.03617 0.05478,0.08475 z m -0.888834,-1.324983 v 0.537435 h 0.235644 q 0.06511,0 0.119889,-0.01963 0.05581,-0.01963 0.09612,-0.05581 0.04031,-0.03721 0.06305,-0.08992 0.02274,-0.05374 0.02274,-0.119888 0,-0.118856 -0.07751,-0.185002 -0.07648,-0.06718 -0.222209,-0.06718 z m 1.858284,0.838192 h -0.747241 q 0.0041,0.176734 0.09509,0.272852 0.09095,0.09612 0.250113,0.09612 0.178801,0 0.328663,-0.117822 v 0.159163 q -0.139527,0.101285 -0.36897,0.101285 -0.224276,0 -0.352434,-0.143658 -0.128157,-0.144696 -0.128157,-0.406178 0,-0.247012 0.139526,-0.402042 0.14056,-0.156065 0.348299,-0.156065 0.20774,0 0.321428,0.134361 0.113688,0.134358 0.113688,0.373102 z m -0.173633,-0.143661 q -10e-4,-0.146761 -0.07131,-0.228409 -0.06925,-0.08165 -0.19327,-0.08165 -0.119889,0 -0.203605,0.08578 -0.08372,0.08578 -0.103353,0.224274 z m 1.151351,0.581877 q -0.121956,0.07338 -0.289388,0.07338 -0.226343,0 -0.365869,-0.146759 -0.138493,-0.147796 -0.138493,-0.382408 0,-0.261482 0.149862,-0.41961 0.149862,-0.159166 0.399975,-0.159166 0.139527,0 0.24598,0.05168 v 0.173632 q -0.117822,-0.08268 -0.252181,-0.08268 -0.162264,0 -0.26665,0.116787 -0.103353,0.115755 -0.103353,0.304893 0,0.186034 0.09715,0.293521 0.09818,0.107487 0.262516,0.107487 0.138493,0 0.260449,-0.09198 z m 0.698665,0.07338 q -0.234611,0 -0.37517,-0.147794 -0.139527,-0.148828 -0.139527,-0.393774 0,-0.26665 0.145728,-0.416512 0.145727,-0.149863 0.393774,-0.149863 0.236678,0 0.36897,0.14573 0.133325,0.145727 0.133325,0.404109 0,0.253214 -0.14366,0.406177 -0.142627,0.151927 -0.38344,0.151927 z m 0.0124,-0.965314 q -0.163297,0 -0.258382,0.11162 -0.09508,0.110588 -0.09508,0.305924 0,0.188103 0.09612,0.296625 0.09612,0.108519 0.257348,0.108519 0.164332,0 0.252181,-0.106453 0.08888,-0.106455 0.08888,-0.302823 0,-0.198438 -0.08888,-0.305925 -0.08785,-0.107487 -0.252181,-0.107487 z m 1.337387,0.05374 q -0.04444,-0.0341 -0.128158,-0.0341 -0.108521,0 -0.181901,0.102318 -0.07235,0.102319 -0.07235,0.279053 v 0.539501 h -0.169499 v -1.058333 h 0.169499 v 0.218075 h 0.0041 q 0.03617,-0.11162 0.110588,-0.173633 0.07441,-0.06304 0.166398,-0.06304 0.06615,0 0.101286,0.01447 z m 1.0872721,0.886767 h -0.169499 v -0.179832 h -0.0041 q -0.117823,0.204637 -0.363802,0.204637 -0.1994721,0 -0.3193611,-0.141592 -0.118856,-0.142626 -0.118856,-0.387575 0,-0.262514 0.132292,-0.420645 0.132292,-0.158131 0.3524331,-0.158131 0.218075,0 0.317294,0.171567 h 0.0041 V 36.315576 H 10.63901 Z M 10.469511,37.403881 V 37.24782 q 0,-0.128159 -0.08475,-0.217043 -0.08475,-0.08888 -0.214974,-0.08888 -0.15503,0 -0.2439131,0.113686 -0.08888,0.113689 -0.08888,0.314193 0,0.182936 0.08475,0.289388 0.08578,0.105421 0.2294431,0.105421 0.141594,0 0.229444,-0.10232 0.08888,-0.10232 0.08888,-0.258382 z"
       id="text1-7-4-5-5-2-8"
       style="font-size:8px;font-family:'Segoe UI';-inkscape-font-specification:'Segoe UI';text-align:center;text-anchor:middle;fill:#ffffff;stroke:#ffffff;stroke-width:0.0695314"
       aria-label="Record" />
    <path
       d="m 6.7028179,52.623796 h -0.785481 v -1.482079 h 0.752408 v 0.157096 h -0.578776 v 0.492993 h 0.535368 v 0.156062 H 6.0909689 V 52.4667 h 0.611849 z m 1.165821,0 h -0.169499 v -0.179835 h -0.0041 q -0.117823,0.20464 -0.363803,0.20464 -0.199471,0 -0.31936,-0.141595 -0.118856,-0.142626 -0.118856,-0.387572 0,-0.262517 0.132292,-0.420645 0.132292,-0.158131 0.352433,-0.158131 0.218075,0 0.317294,0.171566 h 0.0041 v -0.655259 h 0.169499 z m -0.169499,-0.478523 v -0.156064 q 0,-0.128156 -0.08475,-0.217041 -0.08475,-0.08888 -0.214973,-0.08888 -0.15503,0 -0.243913,0.113689 -0.08888,0.113689 -0.08888,0.314193 0,0.182935 0.08475,0.289388 0.08578,0.10542 0.229443,0.10542 0.141593,0 0.229443,-0.102319 0.08888,-0.10232 0.08888,-0.258382 z m 0.599447,-0.848529 q -0.04548,0 -0.07751,-0.031 -0.03204,-0.03101 -0.03204,-0.07855 0,-0.04754 0.03204,-0.07855 0.03204,-0.03204 0.07751,-0.03204 0.04651,0 0.07855,0.03204 0.03307,0.031 0.03307,0.07855 0,0.04548 -0.03307,0.07751 -0.03204,0.03204 -0.07855,0.03204 z m 0.08268,1.327052 h -0.169499 v -1.058333 h 0.169499 z m 0.834057,-0.01035 q -0.05994,0.03307 -0.15813,0.03307 -0.278019,0 -0.278019,-0.31006 v -0.626319 h -0.181901 v -0.144693 h 0.181901 v -0.258381 l 0.169499,-0.05478 v 0.313158 h 0.26665 v 0.144693 h -0.26665 v 0.596347 q 0,0.106452 0.03617,0.151929 0.03617,0.04547 0.119889,0.04547 0.06408,0 0.110587,-0.03514 z"
       id="text1-7-4-5-5-2-3-9"
       style="font-size:8px;font-family:'Segoe UI';-inkscape-font-specification:'Segoe UI';text-align:center;text-anchor:middle;fill:#ffffff;stroke:#ffffff;stroke-width:0.0695314"
       aria-label="Edit" />
    <path
       d="m 6.2387639,67.203946 q -0.223242,0.12609 -0.496094,0.12609 -0.317293,0 -0.513664,-0.204639 -0.195336,-0.204637 -0.195336,-0.541568 0,-0.344165 0.21704,-0.564306 0.218075,-0.221176 0.551905,-0.221176 0.241845,0 0.406177,0.07855 v 0.192238 q -0.179834,-0.113688 -0.425814,-0.113688 -0.249081,0 -0.408244,0.171566 -0.159163,0.171564 -0.159163,0.444415 0,0.28112 0.147794,0.442352 0.147795,0.160197 0.401009,0.160197 0.173633,0 0.300757,-0.06925 V 66.68925 h -0.324528 v -0.157097 h 0.498161 z m 1.079004,0.101285 h -0.169499 v -0.165364 h -0.0041 q -0.110588,0.190169 -0.325562,0.190169 -0.15813,0 -0.248047,-0.08372 -0.08888,-0.08371 -0.08888,-0.222207 0,-0.296622 0.349333,-0.3452 l 0.317293,-0.04444 q 0,-0.26975 -0.218075,-0.26975 -0.191203,0 -0.345198,0.130225 v -0.173633 q 0.156063,-0.09922 0.359668,-0.09922 0.373103,0 0.373103,0.394809 z m -0.169499,-0.535368 -0.255281,0.03514 q -0.117823,0.01654 -0.177767,0.05891 -0.05994,0.04134 -0.05994,0.147797 0,0.07751 0.05478,0.127121 0.05581,0.04858 0.147795,0.04858 0.12609,0 0.207739,-0.08785 0.08268,-0.08888 0.08268,-0.224277 z m 0.979785,0.525034 q -0.05994,0.03307 -0.15813,0.03307 -0.278019,0 -0.278019,-0.31006 V 66.39159 h -0.181901 v -0.144695 h 0.181901 v -0.258381 l 0.169499,-0.05478 v 0.313158 h 0.26665 v 0.144695 h -0.26665 v 0.596345 q 0,0.106455 0.03617,0.151929 0.03617,0.04548 0.11989,0.04548 0.06408,0 0.110587,-0.03514 z m 1.076937,-0.476457 h -0.747241 q 0.0041,0.176734 0.09508,0.272852 0.09095,0.09612 0.250115,0.09612 0.1788,0 0.328662,-0.117822 v 0.159163 q -0.139527,0.101285 -0.36897,0.101285 -0.224276,0 -0.352433,-0.143661 -0.128158,-0.144692 -0.128158,-0.406175 0,-0.247015 0.139526,-0.402045 0.14056,-0.156062 0.3483,-0.156062 0.207739,0 0.321427,0.134358 0.113688,0.134361 0.113688,0.373105 z m -0.173633,-0.14366 q -10e-4,-0.146762 -0.07131,-0.22841 -0.06925,-0.08165 -0.19327,-0.08165 -0.119889,0 -0.203605,0.08578 -0.08372,0.08578 -0.103353,0.224277 z m 0.365869,0.592211 V 67.08509 q 0.138493,0.10232 0.304891,0.10232 0.223242,0 0.223242,-0.148828 0,-0.04238 -0.01964,-0.07131 -0.0186,-0.02997 -0.05168,-0.05271 -0.03204,-0.02273 -0.07648,-0.04031 -0.04341,-0.0186 -0.09405,-0.03824 -0.07028,-0.02791 -0.124024,-0.05581 -0.05271,-0.02894 -0.08888,-0.06408 -0.03514,-0.03617 -0.05374,-0.08165 -0.01757,-0.04547 -0.01757,-0.106452 0,-0.07441 0.03411,-0.131257 0.03411,-0.05788 0.09095,-0.09612 0.05684,-0.03928 0.129191,-0.05891 0.07338,-0.01963 0.150895,-0.01963 0.13746,0 0.2459801,0.04754 v 0.171566 q -0.1167891,-0.07648 -0.2687171,-0.07648 -0.04754,0 -0.08578,0.01138 -0.03824,0.01035 -0.06615,0.02997 -0.02687,0.01963 -0.04237,0.04754 -0.01447,0.02687 -0.01447,0.05994 0,0.04134 0.01447,0.06925 0.0155,0.02791 0.04444,0.04961 0.02894,0.0217 0.07028,0.03927 0.04134,0.01757 0.09405,0.03824 0.07028,0.02687 0.126091,0.05581 0.05581,0.02791 0.09508,0.06408 0.03927,0.03514 0.05995,0.08165 0.0217,0.04651 0.0217,0.110587 0,0.07855 -0.03514,0.136425 -0.03411,0.05788 -0.09198,0.09612 -0.05788,0.03824 -0.133325,0.05685 -0.07545,0.0186 -0.15813,0.0186 -0.163298,0 -0.283187,-0.06305 z"
       id="text1-7-4-5-5-2-7-6"
       style="font-size:8px;font-family:'Segoe UI';-inkscape-font-specification:'Segoe UI';text-align:center;text-anchor:middle;fill:#ffffff;stroke:#ffffff;stroke-width:0.0695314"
       aria-label="Gates" />
    <rect
       style="display:inline;fill:#f5f8ff;fill-opacity:1;stroke:none;stroke-width:0.0981935;-inkscape-stroke:none"
       id="rect4"
       width="10.044881"
       height="42.305691"
       x="134.77271"
       y="78.957443"
       ry="0.79037553" />
    <rect
       style="display:inline;fill:#f5f8ff;fill-opacity:1;stroke:none;stroke-width:0.0981935;-inkscape-stroke:none"
       id="rect4-4"
       width="10.044881"
       height="42.305691"
       x="134.77271"
       y="5.3407631"
       ry="0.83318847" />
    <path
       d="m 6.1216599,80.242261 -0.548803,1.482079 h -0.191203 l -0.537435,-1.482079 h 0.19327 l 0.410311,1.17512 q 0.01964,0.05685 0.02997,0.13126 h 0.0041 q 0.0083,-0.06201 0.03411,-0.133326 l 0.418579,-1.173054 z m 0.858862,0 -0.711067,1.72806 h -0.15813 l 0.709001,-1.72806 z m 0.77618,1.506884 q -0.315226,0 -0.505395,-0.20774 -0.189136,-0.207738 -0.189136,-0.540536 0,-0.3576 0.19327,-0.570508 0.19327,-0.212905 0.526066,-0.212905 0.306958,0 0.494027,0.206706 0.188102,0.206706 0.188102,0.540533 0,0.36277 -0.192236,0.573609 -0.192237,0.210841 -0.514698,0.210841 z m 0.0124,-1.374593 q -0.233577,0 -0.379305,0.168463 -0.145727,0.168466 -0.145727,0.442352 0,0.273886 0.141593,0.441317 0.142627,0.166396 0.371037,0.166396 0.243913,0 0.384473,-0.159162 0.14056,-0.159163 0.14056,-0.44545 0,-0.293524 -0.136426,-0.453721 -0.136426,-0.160195 -0.376205,-0.160195 z m 1.684652,1.301211 q -0.121956,0.07338 -0.289388,0.07338 -0.226343,0 -0.365869,-0.146762 -0.138493,-0.147793 -0.138493,-0.382405 0,-0.261482 0.149862,-0.419613 0.149861,-0.159163 0.399976,-0.159163 0.139526,0 0.245979,0.05168 v 0.173633 q -0.117822,-0.08268 -0.252181,-0.08268 -0.162264,0 -0.26665,0.116789 -0.103353,0.115755 -0.103353,0.30489 0,0.186037 0.09715,0.293524 0.09819,0.107487 0.262516,0.107487 0.138493,0 0.260449,-0.09198 z m 0.7472411,0.03824 q -0.05994,0.03307 -0.15813,0.03307 -0.2780191,0 -0.2780191,-0.31006 V 80.8107 h -0.181901 v -0.144693 h 0.181901 v -0.258382 l 0.169499,-0.05478 v 0.313161 h 0.2666501 v 0.144693 H 9.9343449 v 0.596347 q 0,0.106452 0.03617,0.151929 0.03617,0.04547 0.1198891,0.04547 0.06408,0 0.110587,-0.03514 z"
       id="text1-7-4-5-5-2-2-2"
       style="font-size:8px;font-family:'Segoe UI';-inkscape-font-specification:'Segoe UI';text-align:center;text-anchor:middle;fill:#ffffff;stroke:#ffffff;stroke-width:0.0695314"
       aria-label="V/Oct" />
    <path
       d="m 6.6420419,96.52568 q -0.223242,0.12609 -0.496094,0.12609 -0.317293,0 -0.513664,-0.20464 -0.195337,-0.20464 -0.195337,-0.54157 0,-0.34416 0.217041,-0.5643 0.218075,-0.22118 0.551905,-0.22118 0.241845,0 0.406176,0.0785 v 0.19224 q -0.179833,-0.11369 -0.425813,-0.11369 -0.249081,0 -0.408244,0.17156 -0.159164,0.17157 -0.159164,0.44442 0,0.28112 0.147795,0.44235 0.147795,0.1602 0.401009,0.1602 0.173633,0 0.300757,-0.0693 v -0.41548 h -0.324528 v -0.15709 h 0.498161 z m 1.079004,0.10129 H 7.5515469 V 96.4616 h -0.0041 q -0.110587,0.19017 -0.325561,0.19017 -0.15813,0 -0.248047,-0.0837 -0.08888,-0.0837 -0.08888,-0.22221 0,-0.29663 0.349332,-0.3452 l 0.317294,-0.0444 q 0,-0.26975 -0.218075,-0.26975 -0.191203,0 -0.345198,0.13022 V 95.6431 q 0.156062,-0.0992 0.359668,-0.0992 0.373103,0 0.373103,0.39481 z m -0.169499,-0.53537 -0.255281,0.0351 q -0.117823,0.0165 -0.177767,0.0589 -0.05994,0.0413 -0.05994,0.14779 0,0.0775 0.05478,0.12713 0.05581,0.0486 0.147794,0.0486 0.126091,0 0.20774,-0.0879 0.08268,-0.0889 0.08268,-0.22427 z m 0.979785,0.52503 q -0.05994,0.0331 -0.15813,0.0331 -0.278019,0 -0.278019,-0.31006 v -0.62632 h -0.181901 v -0.1447 h 0.181901 v -0.25838 l 0.169499,-0.0548 v 0.31316 h 0.26665 v 0.1447 h -0.26665 v 0.59634 q 0,0.10646 0.03617,0.15193 0.03617,0.0455 0.11989,0.0455 0.06408,0 0.110587,-0.0351 z m 1.076937,-0.47646 h -0.747241 q 0.0041,0.17674 0.09508,0.27286 0.09095,0.0961 0.250114,0.0961 0.178801,0 0.328662,-0.11783 v 0.15917 q -0.139526,0.10128 -0.368969,0.10128 -0.224276,0 -0.352433,-0.14366 -0.128158,-0.14469 -0.128158,-0.40618 0,-0.24701 0.139526,-0.40204 0.14056,-0.15606 0.3483,-0.15606 0.207739,0 0.321427,0.13436 0.113688,0.13436 0.113688,0.3731 z m -0.173633,-0.14365 q -10e-4,-0.14677 -0.07131,-0.22842 -0.06925,-0.0816 -0.19327,-0.0816 -0.119889,0 -0.203605,0.0858 -0.08372,0.0858 -0.103353,0.22428 z"
       id="text1-7-4-5-5-2-0-3"
       style="font-size:8px;font-family:'Segoe UI';-inkscape-font-specification:'Segoe UI';text-align:center;text-anchor:middle;fill:#ffffff;stroke:#ffffff;stroke-width:0.0695314"
       aria-label="Gate" />
    <text
       xml:space="preserve"
       style="font-style:normal;font-variant:normal;font-weight:normal;font-stretch:normal;font-size:2.11667px;font-family:'Segoe UI';-inkscape-font-specification:'Segoe UI';text-align:center;text-anchor:middle;fill:#ffffff;fill-opacity:1;stroke:#ffffff;stroke-width:0.0695314;-inkscape-stroke:none"
       x="180.15401"
       y="111.54666"
       id="text1-7-4-5-5-2-27"><tspan
         sodipodi:role="line"
         x="180.15401"
         y="111.54666"
         id="tspan2-6-2-9-3-2-98"
         style="font-style:normal;font-variant:normal;font-weight:normal;font-stretch:normal;font-size:2.11667px;font-family:'Segoe UI';-inkscape-font-specification:'Segoe UI';stroke-width:0.0695314">Velocity</tspan></text>
    <text
       xml:space="preserve"
       style="font-style:normal;font-variant:normal;font-weight:normal;font-stretch:normal;font-size:2.11667px;font-family:'Segoe UI';-inkscape-font-specification:'Segoe UI';text-align:center;text-anchor:middle;fill:#ffffff;fill-opacity:1;stroke:#ffffff;stroke-width:0.0695314;-inkscape-stroke:none"
       x="180.22273"
       y="96.52681"
       id="text1-7-4-5-5-2-26"><tspan
         sodipodi:role="line"
         x="180.22273"
         y="96.52681"
         id="tspan2-6-2-9-3-2-3"
         style="font-style:normal;font-variant:normal;font-weight:normal;font-stretch:normal;font-size:2.11667px;font-family:'Segoe UI';-inkscape-font-specification:'Segoe UI';stroke-width:0.0695314">Trig</tspan></text>
    <text
       xml:space="preserve"
       style="font-style:normal;font-variant:normal;font-weight:normal;font-stretch:normal;font-size:2.11667px;font-family:'Segoe UI';-inkscape-font-specification:'Segoe UI';text-align:center;text-anchor:middle;fill:#ffffff;fill-opacity:1;stroke:#ffffff;stroke-width:0.0695314;-inkscape-stroke:none"
       x="180.17622"
       y="81.778778"
       id="text1-7-4-5-5-2-79"><tspan
         sodipodi:role="line"
         x="180.17622"
         y="81.778778"
         id="tspan2-6-2-9-3-2-6"
         style="font-style:normal;font-variant:normal;font-weight:normal;font-stretch:normal;font-size:2.11667px;font-family:'Segoe UI';-inkscape-font-specification:'Segoe UI';stroke-width:0.0695314">V/Oct</tspan></text>
    <text
       xml:space="preserve"
       style="font-style:normal;font-variant:normal;font-weight:normal;font-stretch:normal;font-size:2.11667px;font-family:'Segoe UI';-inkscape-font-specification:'Segoe UI';text-align:center;text-anchor:middle;fill:#ffffff;fill-opacity:1;stroke:#ffffff;stroke-width:0.0695314;-inkscape-stroke:none"
       x="180.06616"
       y="66.818878"
       id="text1-7-4-5-5-2-4"><tspan
         sodipodi:role="line"
         x="180.06616"
         y="66.818878"
         id="tspan2-6-2-9-3-2-7"
         style="font-style:normal;font-variant:normal;font-weight:normal;font-stretch:normal;font-size:2.11667px;font-family:'Segoe UI';-inkscape-font-specification:'Segoe UI';stroke-width:0.0695314">Display</tspan></text>
    <text
       xml:space="preserve"
       style="font-style:normal;font-variant:normal;font-weight:normal;font-stretch:normal;font-size:2.11667px;font-family:'Segoe UI';-inkscape-font-specification:'Segoe UI';text-align:center;text-anchor:middle;fill:#ffffff;fill-opacity:1;stroke:#ffffff;stroke-width:0.0695314;-inkscape-stroke:none"
       x="180.14005"
       y="51.810394"
       id="text1-7-4-5-5-2-1"><tspan
         sodipodi:role="line"
         x="180.14005"
         y="51.810394"
         id="tspan2-6-2-9-3-2-0"
         style="font-style:normal;font-variant:normal;font-weight:normal;font-stretch:normal;font-size:2.11667px;font-family:'Segoe UI';-inkscape-font-specification:'Segoe UI';stroke-width:0.0695314">Steps</tspan></text>
    <text
       xml:space="preserve"
       style="font-style:normal;font-variant:normal;font-weight:normal;font-stretch:normal;font-size:2.11667px;font-family:'Segoe UI';-inkscape-font-specification:'Segoe UI';text-align:center;text-anchor:middle;fill:#ffffff;fill-opacity:1;stroke:#ffffff;stroke-width:0.0695314;-inkscape-stroke:none"
       x="180.10233"
       y="37.323841"
       id="text1-7-4-5-5-2-42"><tspan
         sodipodi:role="line"
         x="180.10233"
         y="37.323841"
         id="tspan2-6-2-9-3-2-53"
         style="font-style:normal;font-variant:normal;font-weight:normal;font-stretch:normal;font-size:2.11667px;font-family:'Segoe UI';-inkscape-font-specification:'Segoe UI';stroke-width:0.0695314">EOC</tspan></text>
    <path
       d="m 138.66839,37.166833 h -0.78548 v -1.48208 h 0.75241 v 0.157097 h -0.57878 v 0.492992 h 0.53537 v 0.156062 h -0.53537 v 0.518832 h 0.61185 z m 0.88263,0.02479 q -0.31522,0 -0.50539,-0.20774 -0.18914,-0.207738 -0.18914,-0.540536 0,-0.3576 0.19327,-0.570508 0.19327,-0.212905 0.52607,-0.212905 0.30696,0 0.49403,0.206706 0.1881,0.206706 0.1881,0.540533 0,0.36277 -0.19224,0.573609 -0.19223,0.210841 -0.5147,0.210841 z m 0.0124,-1.374592 q -0.23358,0 -0.3793,0.168463 -0.14573,0.168465 -0.14573,0.442351 0,0.273886 0.14159,0.441317 0.14263,0.166397 0.37104,0.166397 0.24391,0 0.38447,-0.159163 0.14056,-0.159163 0.14056,-0.44545 0,-0.293523 -0.13642,-0.453721 -0.13643,-0.160194 -0.37621,-0.160194 z m 1.99471,1.287774 q -0.16433,0.08682 -0.40928,0.08682 -0.31625,0 -0.50642,-0.203605 -0.19017,-0.203605 -0.19017,-0.534334 0,-0.355534 0.21394,-0.574643 0.21394,-0.219107 0.5426,-0.219107 0.21084,0 0.34933,0.06098 v 0.185002 q -0.15916,-0.08888 -0.3514,-0.08888 -0.25528,0 -0.41444,0.170532 -0.15813,0.170531 -0.15813,0.455784 0,0.270785 0.14779,0.432017 0.14883,0.160195 0.38964,0.160195 0.22325,0 0.38654,-0.09922 z"
       id="text1-7-4-5-5-2-42-5"
       style="font-size:8px;font-family:'Segoe UI';-inkscape-font-specification:'Segoe UI';text-align:center;text-anchor:middle;stroke:#000000;stroke-width:0.0695314"
       aria-label="EOC" />
    <text
       xml:space="preserve"
       style="font-style:normal;font-variant:normal;font-weight:normal;font-stretch:normal;font-size:2.11667px;font-family:'Segoe UI';-inkscape-font-specification:'Segoe UI';text-align:center;text-anchor:middle;fill:#ffffff;fill-opacity:1;stroke:#ffffff;stroke-width:0.0695314;-inkscape-stroke:none"
       x="180.08838"
       y="22.862101"
       id="text1-7-4-5-5-2-01"><tspan
         sodipodi:role="line"
         x="180.08838"
         y="22.862101"
         id="tspan2-6-2-9-3-2-2"
         style="font-style:normal;font-variant:normal;font-weight:normal;font-stretch:normal;font-size:2.11667px;font-family:'Segoe UI';-inkscape-font-specification:'Segoe UI';stroke-width:0.0695314">Reset</tspan></text>
    <text
       xml:space="preserve"
       style="font-style:normal;font-variant:normal;font-weight:normal;font-stretch:normal;font-size:2.11667px;font-family:'Segoe UI';-inkscape-font-specification:'Segoe UI';text-align:center;text-anchor:middle;fill:#ffffff;fill-opacity:1;stroke:#ffffff;stroke-width:0.0695314;-inkscape-stroke:none"
       x="180.1106"
       y="8.4003553"
       id="text1-7-4-5-5-2-266"><tspan
         sodipodi:role="line"
         x="180.1106"
         y="8.4003553"
         id="tspan2-6-2-9-3-2-61"
         style="font-style:normal;font-variant:normal;font-weight:normal;font-stretch:normal;font-size:2.11667px;font-family:'Segoe UI';-inkscape-font-specification:'Segoe UI';stroke-width:0.0695314">Clock</tspan></text>
    <path
       d="m 137.37647,109.89518 -0.5488,1.48208 h -0.1912 l -0.53744,-1.48208 h 0.19327 l 0.41031,1.17512 q 0.0196,0.0568 0.03,0.13126 h 0.004 q 0.008,-0.062 0.0341,-0.13333 l 0.41858,-1.17305 z m 0.90641,0.99529 h -0.74724 q 0.004,0.17673 0.0951,0.27285 0.0909,0.0961 0.25011,0.0961 0.1788,0 0.32866,-0.11783 v 0.15917 q -0.13952,0.10128 -0.36897,0.10128 -0.22427,0 -0.35243,-0.14366 -0.12816,-0.14469 -0.12816,-0.40617 0,-0.24702 0.13953,-0.40205 0.14056,-0.15606 0.3483,-0.15606 0.20774,0 0.32143,0.13436 0.11368,0.13436 0.11368,0.37311 z m -0.17364,-0.14366 q -0.001,-0.14676 -0.0713,-0.22841 -0.0692,-0.0816 -0.19327,-0.0816 -0.11988,0 -0.2036,0.0858 -0.0837,0.0858 -0.10335,0.22428 z m 0.59945,0.63045 h -0.1695 v -1.56683 h 0.1695 z m 0.78548,0.0248 q -0.23461,0 -0.37517,-0.14779 -0.13952,-0.14883 -0.13952,-0.39378 0,-0.26665 0.14572,-0.41651 0.14573,-0.14986 0.39378,-0.14986 0.23668,0 0.36897,0.14573 0.13332,0.14572 0.13332,0.4041 0,0.25322 -0.14366,0.40618 -0.14262,0.15193 -0.38344,0.15193 z m 0.0124,-0.96531 q -0.16329,0 -0.25838,0.11162 -0.0951,0.11059 -0.0951,0.30592 0,0.1881 0.0961,0.29662 0.0961,0.10853 0.25735,0.10853 0.16433,0 0.25218,-0.10646 0.0889,-0.10645 0.0889,-0.30282 0,-0.19844 -0.0889,-0.30593 -0.0879,-0.10748 -0.25218,-0.10748 z m 1.50689,0.89193 q -0.12196,0.0734 -0.28939,0.0734 -0.22634,0 -0.36587,-0.14676 -0.13849,-0.14779 -0.13849,-0.3824 0,-0.26149 0.14986,-0.41962 0.14986,-0.15916 0.39998,-0.15916 0.13952,0 0.24598,0.0517 v 0.17364 q -0.11783,-0.0827 -0.25219,-0.0827 -0.16226,0 -0.26665,0.11679 -0.10335,0.11575 -0.10335,0.30489 0,0.18603 0.0971,0.29352 0.0982,0.10749 0.26252,0.10749 0.13849,0 0.26045,-0.092 z m 0.34313,-1.27848 q -0.0455,0 -0.0775,-0.031 -0.032,-0.031 -0.032,-0.0785 0,-0.0475 0.032,-0.0786 0.032,-0.032 0.0775,-0.032 0.0465,0 0.0786,0.032 0.0331,0.031 0.0331,0.0786 0,0.0455 -0.0331,0.0775 -0.032,0.032 -0.0786,0.032 z m 0.0827,1.32706 h -0.1695 v -1.05834 h 0.1695 z m 0.83406,-0.0104 q -0.0599,0.0331 -0.15813,0.0331 -0.27802,0 -0.27802,-0.31006 v -0.62631 h -0.1819 v -0.1447 h 0.1819 v -0.25838 l 0.1695,-0.0548 v 0.31316 h 0.26665 v 0.1447 h -0.26665 v 0.59634 q 0,0.10646 0.0362,0.15193 0.0362,0.0455 0.11989,0.0455 0.0641,0 0.11059,-0.0351 z m 1.06867,-1.048 -0.4868,1.22783 q -0.13022,0.32867 -0.36587,0.32867 -0.0661,0 -0.11058,-0.0134 v -0.15193 q 0.0548,0.0186 0.10025,0.0186 0.12816,0 0.19224,-0.15296 l 0.0848,-0.20051 -0.41342,-1.05626 h 0.18811 l 0.28628,0.81441 q 0.005,0.0155 0.0217,0.0806 h 0.006 q 0.005,-0.0248 0.0207,-0.0785 l 0.30076,-0.81648 z"
       id="text1-7-4-5-5-2-27-6"
       style="font-size:8px;font-family:'Segoe UI';-inkscape-font-specification:'Segoe UI';text-align:center;text-anchor:middle;fill:#000000;fill-opacity:1;stroke:#000000;stroke-width:0.0695314;stroke-opacity:1"
       aria-label="Velocity" />
    <path
       d="m 139.14587,95.03242 h -0.42788 v 1.32499 h -0.17363 v -1.32499 h -0.42685 v -0.15709 h 1.02836 z m 0.57775,0.43822 q -0.0444,-0.0341 -0.12816,-0.0341 -0.10852,0 -0.1819,0.10232 -0.0724,0.10231 -0.0724,0.27905 v 0.5395 h -0.1695 v -1.05833 h 0.1695 v 0.21807 h 0.004 q 0.0362,-0.11162 0.11058,-0.17363 0.0744,-0.0631 0.1664,-0.0631 0.0662,0 0.10129,0.0145 z m 0.27078,-0.44028 q -0.0455,0 -0.0775,-0.031 -0.032,-0.031 -0.032,-0.0785 0,-0.0475 0.032,-0.0786 0.032,-0.032 0.0775,-0.032 0.0465,0 0.0785,0.032 0.0331,0.031 0.0331,0.0786 0,0.0455 -0.0331,0.0775 -0.032,0.032 -0.0785,0.032 z m 0.0827,1.32705 h -0.1695 v -1.05833 h 0.1695 z m 1.24644,-0.0847 q 0,0.58291 -0.55811,0.58291 -0.19637,0 -0.34313,-0.0744 v -0.1695 q 0.1788,0.0992 0.34106,0.0992 0.39068,0 0.39068,-0.41547 v -0.11576 h -0.004 q -0.12092,0.20257 -0.3638,0.20257 -0.19741,0 -0.31833,-0.14056 -0.11989,-0.14159 -0.11989,-0.3793 0,-0.26975 0.12919,-0.42892 0.13023,-0.15916 0.35553,-0.15916 0.21395,0 0.3173,0.17157 h 0.004 v -0.14676 h 0.1695 z m -0.1695,-0.39378 v -0.15606 q 0,-0.12609 -0.0858,-0.21601 -0.0848,-0.0899 -0.21187,-0.0899 -0.1571,0 -0.24599,0.11472 -0.0889,0.11369 -0.0889,0.31936 0,0.17673 0.0847,0.28319 0.0858,0.10542 0.22635,0.10542 0.14263,0 0.23151,-0.10129 0.0899,-0.10128 0.0899,-0.25942 z"
       id="text1-7-4-5-5-2-26-7"
       style="font-size:8px;font-family:'Segoe UI';-inkscape-font-specification:'Segoe UI';text-align:center;text-anchor:middle;fill:#000000;fill-opacity:1;stroke:#000000;stroke-width:0.0695314;stroke-opacity:1"
       aria-label="Trig" />
    <path
       d="m 138.31957,80.127294 -0.54881,1.482079 h -0.1912 l -0.53743,-1.482079 h 0.19327 l 0.41031,1.175123 q 0.0196,0.05684 0.03,0.131257 h 0.004 q 0.008,-0.06201 0.0341,-0.133323 l 0.41858,-1.173057 z m 0.85886,0 -0.71107,1.72806 h -0.15813 l 0.709,-1.72806 z m 0.77618,1.506884 q -0.31523,0 -0.50539,-0.207737 -0.18914,-0.207741 -0.18914,-0.540536 0,-0.3576 0.19327,-0.570508 0.19327,-0.212908 0.52606,-0.212908 0.30696,0 0.49403,0.206706 0.1881,0.206706 0.1881,0.540536 0,0.362767 -0.19223,0.573609 -0.19224,0.210838 -0.5147,0.210838 z m 0.0124,-1.374592 q -0.23358,0 -0.37931,0.168465 -0.14572,0.168466 -0.14572,0.442352 0,0.273883 0.14159,0.441314 0.14263,0.166399 0.37104,0.166399 0.24391,0 0.38447,-0.159162 0.14056,-0.159163 0.14056,-0.445453 0,-0.293521 -0.13643,-0.453718 -0.13642,-0.160197 -0.3762,-0.160197 z m 1.68465,1.301213 q -0.12196,0.07338 -0.28939,0.07338 -0.22634,0 -0.36587,-0.146759 -0.13849,-0.147796 -0.13849,-0.382408 0,-0.261482 0.14986,-0.41961 0.14986,-0.159166 0.39998,-0.159166 0.13953,0 0.24598,0.05168 v 0.173633 q -0.11782,-0.08268 -0.25218,-0.08268 -0.16227,0 -0.26665,0.116787 -0.10336,0.115756 -0.10336,0.304893 0,0.186034 0.0971,0.293521 0.0982,0.107487 0.26252,0.107487 0.1385,0 0.26045,-0.09198 z m 0.74724,0.03824 q -0.06,0.03307 -0.15813,0.03307 -0.27802,0 -0.27802,-0.310058 v -0.626316 h -0.1819 V 80.55104 h 0.1819 v -0.258381 l 0.1695,-0.05478 v 0.313158 h 0.26665 v 0.144695 h -0.26665 v 0.596347 q 0,0.106453 0.0362,0.151927 0.0362,0.04548 0.11989,0.04548 0.0641,0 0.11059,-0.03514 z"
       id="text1-7-4-5-5-2-79-1"
       style="font-size:8px;font-family:'Segoe UI';-inkscape-font-specification:'Segoe UI';text-align:center;text-anchor:middle;fill:#000000;fill-opacity:1;stroke:#000000;stroke-width:0.0695314;stroke-opacity:1"
       aria-label="V/Oct" />
    <path
       d="m 136.4463,66.25596 v -1.482079 h 0.40927 q 0.78342,0 0.78342,0.722436 0,0.343131 -0.21808,0.551905 -0.21704,0.207738 -0.58187,0.207738 z m 0.17363,-1.324983 v 1.167887 h 0.22118 q 0.29145,0 0.45371,-0.156062 0.16227,-0.156062 0.16227,-0.442352 0,-0.569473 -0.60565,-0.569473 z m 1.37459,-0.0021 q -0.0455,0 -0.0775,-0.03101 -0.032,-0.03101 -0.032,-0.07855 0,-0.04754 0.032,-0.07855 0.032,-0.03204 0.0775,-0.03204 0.0465,0 0.0786,0.03204 0.0331,0.03101 0.0331,0.07855 0,0.04547 -0.0331,0.07751 -0.032,0.03204 -0.0786,0.03204 z m 0.0827,1.32705 h -0.16949 v -1.058334 h 0.16949 z m 0.27906,-0.03824 v -0.181902 q 0.13849,0.10232 0.30489,0.10232 0.22324,0 0.22324,-0.148828 0,-0.04238 -0.0196,-0.07131 -0.0186,-0.02997 -0.0517,-0.05271 -0.032,-0.02273 -0.0765,-0.04031 -0.0434,-0.0186 -0.0941,-0.03824 -0.0703,-0.02791 -0.12402,-0.05581 -0.0527,-0.02894 -0.0889,-0.06408 -0.0351,-0.03617 -0.0537,-0.08165 -0.0176,-0.04548 -0.0176,-0.106455 0,-0.07441 0.0341,-0.131257 0.0341,-0.05788 0.0909,-0.09612 0.0568,-0.03927 0.12919,-0.05891 0.0734,-0.01963 0.15089,-0.01963 0.13746,0 0.24598,0.04754 v 0.171566 q -0.11679,-0.07648 -0.26872,-0.07648 -0.0475,0 -0.0858,0.01138 -0.0382,0.01035 -0.0661,0.02998 -0.0269,0.01963 -0.0424,0.04754 -0.0145,0.02687 -0.0145,0.05995 0,0.04134 0.0145,0.06924 0.0155,0.0279 0.0444,0.04961 0.0289,0.0217 0.0703,0.03928 0.0413,0.01757 0.0941,0.03824 0.0703,0.02687 0.12609,0.05581 0.0558,0.02791 0.0951,0.06408 0.0393,0.03514 0.0599,0.08165 0.0217,0.04651 0.0217,0.110587 0,0.07855 -0.0351,0.136428 -0.0341,0.05788 -0.092,0.09612 -0.0579,0.03824 -0.13332,0.05684 -0.0755,0.0186 -0.15813,0.0186 -0.1633,0 -0.28319,-0.06305 z m 1.13584,-0.114721 h -0.004 v 0.639754 h -0.16949 v -1.545127 h 0.16949 v 0.186037 h 0.004 q 0.12506,-0.210841 0.36587,-0.210841 0.20464,0 0.31936,0.142629 0.11472,0.141591 0.11472,0.380338 0,0.265615 -0.12919,0.425813 -0.12919,0.159162 -0.35346,0.159162 -0.20568,0 -0.3173,-0.177765 z m -0.004,-0.426847 v 0.147793 q 0,0.131258 0.0848,0.223243 0.0858,0.09095 0.21705,0.09095 0.15399,0 0.24081,-0.117821 0.0879,-0.117822 0.0879,-0.327629 0,-0.176733 -0.0816,-0.276987 -0.0816,-0.10025 -0.22118,-0.10025 -0.14779,0 -0.23771,0.103351 -0.0899,0.10232 -0.0899,0.25735 z m 1.24437,0.579808 h -0.1695 v -1.566828 h 0.1695 z m 1.10071,0 h -0.1695 v -0.165365 h -0.004 q -0.11059,0.190169 -0.32556,0.190169 -0.15813,0 -0.24805,-0.08371 -0.0889,-0.08372 -0.0889,-0.22221 0,-0.296622 0.34934,-0.345197 l 0.31729,-0.04444 q 0,-0.26975 -0.21808,-0.26975 -0.1912,0 -0.3452,0.130222 V 65.27199 q 0.15607,-0.09922 0.35967,-0.09922 0.37311,0 0.37311,0.394808 z m -0.1695,-0.535366 -0.25528,0.03514 q -0.11782,0.01654 -0.17777,0.05891 -0.0599,0.04134 -0.0599,0.147796 0,0.07751 0.0548,0.127124 0.0558,0.04857 0.1478,0.04857 0.12609,0 0.20774,-0.08785 0.0827,-0.08888 0.0827,-0.224277 z m 1.33119,-0.522968 -0.4868,1.227834 q -0.13022,0.328663 -0.36586,0.328663 -0.0661,0 -0.11059,-0.01344 v -0.151927 q 0.0548,0.0186 0.10025,0.0186 0.12816,0 0.19224,-0.152964 l 0.0848,-0.200504 -0.41342,-1.056267 h 0.18811 l 0.28628,0.814422 q 0.005,0.0155 0.0217,0.08062 h 0.006 q 0.005,-0.02479 0.0207,-0.07855 l 0.30076,-0.816488 z"
       id="text1-7-4-5-5-2-4-1"
       style="font-size:8px;font-family:'Segoe UI';-inkscape-font-specification:'Segoe UI';text-align:center;text-anchor:middle;fill:#ffffff;fill-opacity:1;stroke:#ffffff;stroke-width:0.0695314"
       aria-label="Display" />
    <path
       d="m 137.31601,51.187537 v -0.204639 q 0.0351,0.03101 0.0837,0.05581 0.0496,0.02479 0.10336,0.04238 0.0548,0.01654 0.10955,0.02582 0.0548,0.0093 0.10128,0.0093 0.1602,0 0.23875,-0.05891 0.0796,-0.05994 0.0796,-0.171566 0,-0.05994 -0.0269,-0.104386 -0.0258,-0.04444 -0.0724,-0.08061 -0.0465,-0.03721 -0.11059,-0.07028 -0.0631,-0.03411 -0.13642,-0.07131 -0.0775,-0.03928 -0.1447,-0.07958 -0.0672,-0.04031 -0.11679,-0.08888 -0.0496,-0.04857 -0.0786,-0.109554 -0.0279,-0.06201 -0.0279,-0.144695 0,-0.101285 0.0444,-0.175699 0.0444,-0.07545 0.11679,-0.124024 0.0723,-0.04857 0.16433,-0.07235 0.093,-0.02376 0.18914,-0.02376 0.21911,0 0.31936,0.05271 v 0.195337 q -0.13126,-0.09095 -0.33693,-0.09095 -0.0568,0 -0.11369,0.01241 -0.0568,0.01138 -0.10129,0.03824 -0.0444,0.02687 -0.0724,0.06924 -0.0279,0.04238 -0.0279,0.103355 0,0.05684 0.0207,0.09818 0.0217,0.04134 0.063,0.07545 0.0413,0.03411 0.10025,0.06615 0.0599,0.03204 0.13746,0.07028 0.0796,0.03928 0.1509,0.08268 0.0713,0.04341 0.12506,0.09612 0.0538,0.05271 0.0847,0.116787 0.032,0.06408 0.032,0.146761 0,0.109554 -0.0434,0.186034 -0.0424,0.07545 -0.11576,0.122992 -0.0724,0.04754 -0.16743,0.06821 -0.0951,0.0217 -0.20051,0.0217 -0.0351,0 -0.0868,-0.0062 -0.0517,-0.0052 -0.10542,-0.01654 -0.0538,-0.01034 -0.10232,-0.02582 -0.0475,-0.01654 -0.0765,-0.03617 z m 1.5937,0.04961 q -0.0599,0.03307 -0.15813,0.03307 -0.27802,0 -0.27802,-0.310059 v -0.626317 h -0.1819 v -0.144695 h 0.1819 v -0.258382 l 0.1695,-0.05478 v 0.313158 h 0.26665 v 0.144695 h -0.26665 v 0.596345 q 0,0.106455 0.0362,0.151929 0.0362,0.04548 0.11989,0.04548 0.0641,0 0.11059,-0.03514 z m 1.07694,-0.476457 h -0.74724 q 0.004,0.176734 0.0951,0.272852 0.091,0.09612 0.25011,0.09612 0.1788,0 0.32866,-0.117822 v 0.159163 q -0.13952,0.101285 -0.36896,0.101285 -0.22428,0 -0.35244,-0.143661 -0.12815,-0.144693 -0.12815,-0.406175 0,-0.247015 0.13952,-0.402042 0.14056,-0.156065 0.3483,-0.156065 0.20774,0 0.32143,0.134358 0.11369,0.134361 0.11369,0.373105 z m -0.17363,-0.143661 q -0.001,-0.146761 -0.0713,-0.228409 -0.0693,-0.08165 -0.19327,-0.08165 -0.11989,0 -0.20361,0.08578 -0.0837,0.08578 -0.10335,0.224276 z m 0.60358,0.477491 h -0.004 v 0.639755 h -0.16953 v -1.545127 h 0.1695 v 0.186036 h 0.004 q 0.12506,-0.210841 0.36587,-0.210841 0.20464,0 0.31936,0.142626 0.11472,0.141595 0.11472,0.380339 0,0.265618 -0.12919,0.425815 -0.12919,0.159163 -0.35347,0.159163 -0.20567,0 -0.31729,-0.177766 z m -0.004,-0.426847 v 0.147794 q 0,0.131257 0.0848,0.223242 0.0858,0.09095 0.21704,0.09095 0.15399,0 0.24081,-0.117822 0.0879,-0.117824 0.0879,-0.327628 0,-0.176734 -0.0816,-0.276987 -0.0816,-0.100254 -0.22118,-0.100254 -0.14779,0 -0.23771,0.103355 -0.0899,0.102319 -0.0899,0.257349 z m 1.01079,0.541568 V 51.02734 q 0.13849,0.10232 0.30489,0.10232 0.22324,0 0.22324,-0.148829 0,-0.04237 -0.0196,-0.07131 -0.0186,-0.02997 -0.0517,-0.05271 -0.032,-0.02273 -0.0765,-0.04031 -0.0434,-0.0186 -0.0941,-0.03824 -0.0703,-0.0279 -0.12402,-0.05581 -0.0527,-0.02894 -0.0889,-0.06408 -0.0351,-0.03617 -0.0537,-0.08165 -0.0176,-0.04548 -0.0176,-0.106455 0,-0.07441 0.0341,-0.131257 0.0341,-0.05788 0.0909,-0.09612 0.0568,-0.03927 0.12919,-0.05891 0.0734,-0.01963 0.1509,-0.01963 0.13746,0 0.24598,0.04754 v 0.171567 q -0.11679,-0.07648 -0.26872,-0.07648 -0.0475,0 -0.0858,0.01138 -0.0382,0.01035 -0.0661,0.02997 -0.0269,0.01963 -0.0424,0.04754 -0.0145,0.02687 -0.0145,0.05994 0,0.04134 0.0145,0.06925 0.0155,0.02791 0.0444,0.04961 0.0289,0.0217 0.0703,0.03927 0.0413,0.01757 0.094,0.03824 0.0703,0.02687 0.12609,0.05581 0.0558,0.02791 0.0951,0.06408 0.0393,0.03514 0.0599,0.08165 0.0217,0.04651 0.0217,0.110588 0,0.07855 -0.0351,0.136425 -0.0341,0.05788 -0.092,0.09612 -0.0579,0.03824 -0.13333,0.05684 -0.0754,0.0186 -0.15813,0.0186 -0.1633,0 -0.28318,-0.06304 z"
       id="text1-7-4-5-5-2-1-3"
       style="font-size:8px;font-family:'Segoe UI';-inkscape-font-specification:'Segoe UI';text-align:center;text-anchor:middle;fill:#ffffff;fill-opacity:1;stroke:#ffffff;stroke-width:0.0695314"
       aria-label="Steps" />
    <path
       d="m 138.39088,22.692695 h -0.2067 l -0.24805,-0.415478 q -0.0341,-0.05788 -0.0661,-0.09819 -0.032,-0.04134 -0.0661,-0.06718 -0.0331,-0.02584 -0.0724,-0.03721 -0.0382,-0.0124 -0.0868,-0.0124 h -0.14263 v 0.630453 h -0.17363 v -1.48208 h 0.44235 q 0.0971,0 0.1788,0.0248 0.0827,0.02377 0.14263,0.07338 0.061,0.04961 0.0951,0.124023 0.0341,0.07338 0.0341,0.1726 0,0.07751 -0.0238,0.142626 -0.0227,0.06408 -0.0661,0.114722 -0.0424,0.05064 -0.10336,0.08682 -0.0599,0.03514 -0.13539,0.05478 v 0.0041 q 0.0372,0.01654 0.0641,0.03824 0.0279,0.02067 0.0527,0.04961 0.0248,0.02894 0.0486,0.06615 0.0248,0.03617 0.0548,0.08475 z m -0.88883,-1.324983 v 0.537435 h 0.23564 q 0.0651,0 0.11989,-0.01964 0.0558,-0.01964 0.0961,-0.05581 0.0403,-0.03721 0.0631,-0.08992 0.0227,-0.05374 0.0227,-0.119889 0,-0.118856 -0.0775,-0.185001 -0.0765,-0.06718 -0.22221,-0.06718 z m 1.85828,0.838191 h -0.74724 q 0.004,0.176734 0.0951,0.272852 0.0909,0.09612 0.25011,0.09612 0.1788,0 0.32867,-0.117822 v 0.159163 q -0.13953,0.101286 -0.36897,0.101286 -0.22428,0 -0.35244,-0.14366 -0.12816,-0.144694 -0.12816,-0.406177 0,-0.247013 0.13953,-0.402043 0.14056,-0.156063 0.3483,-0.156063 0.20774,0 0.32143,0.134359 0.11368,0.134359 0.11368,0.373104 z m -0.17363,-0.14366 q -0.001,-0.146761 -0.0713,-0.22841 -0.0692,-0.08165 -0.19327,-0.08165 -0.11989,0 -0.20361,0.08578 -0.0837,0.08578 -0.10335,0.224276 z m 0.36587,0.592212 v -0.181901 q 0.13849,0.102319 0.30489,0.102319 0.22324,0 0.22324,-0.148828 0,-0.04237 -0.0196,-0.07131 -0.0186,-0.02997 -0.0517,-0.05271 -0.032,-0.02274 -0.0765,-0.04031 -0.0434,-0.0186 -0.094,-0.03824 -0.0703,-0.02791 -0.12402,-0.05581 -0.0527,-0.02894 -0.0889,-0.06408 -0.0351,-0.03617 -0.0537,-0.08165 -0.0176,-0.04547 -0.0176,-0.106453 0,-0.07441 0.0341,-0.131258 0.0341,-0.05788 0.0909,-0.09612 0.0568,-0.03927 0.12919,-0.05891 0.0734,-0.01964 0.1509,-0.01964 0.13745,0 0.24597,0.04754 v 0.171566 q -0.11678,-0.07648 -0.26871,-0.07648 -0.0475,0 -0.0858,0.01137 -0.0382,0.01033 -0.0661,0.02997 -0.0269,0.01964 -0.0424,0.04754 -0.0145,0.02687 -0.0145,0.05994 0,0.04134 0.0145,0.06925 0.0155,0.0279 0.0444,0.04961 0.0289,0.0217 0.0703,0.03927 0.0413,0.01757 0.0941,0.03824 0.0703,0.02687 0.12609,0.05581 0.0558,0.02791 0.0951,0.06408 0.0393,0.03514 0.0599,0.08165 0.0217,0.04651 0.0217,0.110587 0,0.07855 -0.0351,0.136426 -0.0341,0.05788 -0.092,0.09612 -0.0579,0.03824 -0.13333,0.05684 -0.0754,0.0186 -0.15813,0.0186 -0.1633,0 -0.28319,-0.06304 z m 1.81281,-0.448552 h -0.74724 q 0.004,0.176734 0.0951,0.272852 0.0909,0.09612 0.25011,0.09612 0.1788,0 0.32866,-0.117822 v 0.159163 q -0.13952,0.101286 -0.36897,0.101286 -0.22427,0 -0.35243,-0.14366 -0.12816,-0.144694 -0.12816,-0.406177 0,-0.247013 0.13953,-0.402043 0.14056,-0.156063 0.3483,-0.156063 0.20774,0 0.32143,0.134359 0.11368,0.134359 0.11368,0.373104 z m -0.17363,-0.14366 q -0.001,-0.146761 -0.0713,-0.22841 -0.0692,-0.08165 -0.19327,-0.08165 -0.11989,0 -0.20361,0.08578 -0.0837,0.08578 -0.10335,0.224276 z m 0.92087,0.620117 q -0.0599,0.03307 -0.15813,0.03307 -0.27802,0 -0.27802,-0.310059 v -0.626318 h -0.1819 v -0.144694 h 0.1819 V 21.37598 l 0.1695,-0.05478 v 0.313159 h 0.26665 v 0.144694 h -0.26665 v 0.596346 q 0,0.106454 0.0362,0.151929 0.0362,0.04547 0.11989,0.04547 0.0641,0 0.11058,-0.03514 z"
       id="text1-7-4-5-5-2-01-2"
       style="font-size:8px;font-family:'Segoe UI';-inkscape-font-specification:'Segoe UI';text-align:center;text-anchor:middle;fill:#000000;fill-opacity:1;stroke:none;stroke-width:0.0695314;stroke-opacity:1"
       aria-label="Reset" />
    <path
       d="m 138.32939,8.1689402 q -0.16434,0.08682 -0.40928,0.08682 -0.31626,0 -0.50643,-0.203605 -0.19017,-0.203605 -0.19017,-0.534334 0,-0.355534 0.21394,-0.574642 0.21394,-0.219108 0.5426,-0.219108 0.21084,0 0.34934,0.06098 v 0.185002 q -0.15917,-0.08888 -0.3514,-0.08888 -0.25528,0 -0.41445,0.170533 -0.15813,0.170532 -0.15813,0.455786 0,0.270784 0.1478,0.432015 0.14882,0.160196 0.38964,0.160196 0.22324,0 0.38654,-0.09922 z m 0.44855,0.06201 h -0.1695 v -1.56683 h 0.1695 z m 0.78548,0.0248 q -0.23461,0 -0.37517,-0.147794 -0.13953,-0.148828 -0.13953,-0.393775 0,-0.26665 0.14573,-0.416512 0.14573,-0.149861 0.39377,-0.149861 0.23668,0 0.36897,0.145727 0.13333,0.145728 0.13333,0.40411 0,0.253214 -0.14366,0.406177 -0.14263,0.151928 -0.38344,0.151928 z m 0.0124,-0.965315 q -0.1633,0 -0.25838,0.111621 -0.0951,0.110587 -0.0951,0.305924 0,0.188102 0.0961,0.296623 0.0961,0.108521 0.25735,0.108521 0.16433,0 0.25218,-0.106454 0.0889,-0.106454 0.0889,-0.302824 0,-0.198437 -0.0889,-0.305924 -0.0879,-0.107487 -0.25218,-0.107487 z m 1.50689,0.891935 q -0.12196,0.07338 -0.28939,0.07338 -0.22634,0 -0.36587,-0.146761 -0.13849,-0.147794 -0.13849,-0.382405 0,-0.261483 0.14986,-0.419613 0.14986,-0.159163 0.39997,-0.159163 0.13953,0 0.24598,0.05168 v 0.173633 q -0.11782,-0.08268 -0.25218,-0.08268 -0.16226,0 -0.26665,0.116788 -0.10335,0.115756 -0.10335,0.304891 0,0.186036 0.0971,0.293523 0.0982,0.107487 0.26252,0.107487 0.13849,0 0.26045,-0.09199 z m 1.13481,0.04858 h -0.23771 l -0.46716,-0.508496 h -0.004 v 0.508496 h -0.16951 v -1.56683 h 0.1695 v 0.993221 h 0.004 l 0.44441,-0.484725 h 0.22222 l -0.49093,0.510564 z"
       id="text1-7-4-5-5-2-266-0"
       style="font-size:8px;font-family:'Segoe UI';-inkscape-font-specification:'Segoe UI';text-align:center;text-anchor:middle;fill:#000000;fill-opacity:1;stroke:#000000;stroke-width:0.0695314;stroke-opacity:1"
       aria-label="Clock" />
    <text
       xml:space="preserve"
       id="text2"
       style="font-style:normal;font-variant:normal;font-weight:normal;font-stretch:normal;font-size:32px;font-family:'Segoe UI';-inkscape-font-specification:'Segoe UI';text-align:center;white-space:pre;shape-inside:url(#rect3);display:inline;fill:#ffffff;fill-opacity:1;stroke:#ffffff;stroke-width:0.565702;-inkscape-stroke:none"
       transform="scale(0.26458333)" />
    <path
       style="font-weight:600;font-size:11.9273px;font-family:'Segoe UI';-inkscape-font-specification:'Segoe UI Semi-Bold';text-align:center;text-anchor:middle;fill:#000000;fill-opacity:1;stroke:none;stroke-width:0.0374253"
       d="m 149.95406,112.69346 q -0.31337,0 -0.5024,-0.21247 -0.18802,-0.21248 -0.18802,-0.55286 0,-0.36575 0.19207,-0.58351 0.19206,-0.21776 0.5216,-0.21776 0.30527,0 0.49127,0.21142 0.18701,0.21142 0.18701,0.55285 0,0.37104 -0.19105,0.58669 -0.19105,0.21564 -0.51048,0.21564 z m 0.0111,-1.34567 q -0.19914,0 -0.32449,0.15539 -0.12433,0.1554 -0.12433,0.4091 0,0.25264 0.1213,0.40697 0.1213,0.15434 0.31741,0.15434 0.20823,0 0.32852,-0.14694 0.1203,-0.14693 0.1203,-0.4112 0,-0.27167 -0.11726,-0.41967 -0.11625,-0.14799 -0.32145,-0.14799 z m 1.83268,1.3203 h -0.23452 v -0.17125 h -0.004 q -0.1021,0.19662 -0.31741,0.19662 -0.36694,0 -0.36694,-0.46089 v -0.64693 h 0.23452 v 0.62156 q 0,0.29176 0.21531,0.29176 0.10412,0 0.17084,-0.0803 0.0677,-0.0803 0.0677,-0.21036 v -0.62262 h 0.23452 z m 0.85113,-0.0116 q -0.0687,0.0359 -0.18094,0.0359 -0.30123,0 -0.30123,-0.30233 V 111.778 h -0.17286 v -0.19239 h 0.17286 v -0.25053 l 0.23452,-0.0698 v 0.3203 h 0.24765 v 0.19239 h -0.24765 v 0.54123 q 0,0.0962 0.0333,0.13742 0.0334,0.0412 0.1112,0.0412 0.0596,0 0.1031,-0.0359 z"
       id="text1-7-0-5-2-3"
       aria-label="Out" />
    <path
       d="m 19.775844,125.10196 1.304454,1.66021 h -1.233299 l -1.304449,-1.66021 1.304449,-1.6602 h 1.233299 z m -2.395442,-1.6602 h 0.94869 v 1.93295 l 0.05929,-0.0759 0.616649,0.78504 -0.533638,0.67831 h -1.090994 z m 6.261359,2.60889 -0.569216,1.09811 -1.921097,-3.707 h 1.019841 l 0.901256,1.77168 0.06641,-0.13282 z m 0.284605,-2.5164 0.04743,-0.0925 h 1.019845 l -0.5621,1.08625 z m 0.569216,1.67919 0.901256,-1.77168 h 1.019842 l -1.921098,3.707 -1.921099,-3.707 h 1.019844 z m 2.490314,-1.21195 0.490945,-0.94632 1.9211,3.707 h -1.019844 z m 0.351015,1.26175 -0.761325,1.49893 h -1.019842 l 1.285475,-2.48082 z"
       id="text8"
       style="font-size:14.6667px;font-family:Revamped;-inkscape-font-specification:Revamped;text-align:center;text-anchor:middle;white-space:pre;opacity:0.648;fill:#ffffff;stroke-width:0.438145"
       aria-label="KWA" />
  </g>
</svg>
